<?xml version="1.0" standalone="no"?>
<!DOCTYPE svg PUBLIC "-//W3C//DTD SVG 1.1//EN" "http://www.w3.org/Graphics/SVG/1.1/DTD/svg11.dtd" >
<!--
2013-9-30: Created.
-->
<svg>
<metadata>
Created by iconfont
</metadata>
<defs>

<font id="font_family" horiz-adv-x="1024" >
  <font-face
    font-family="font_family"
    font-weight="500"
    font-stretch="normal"
    units-per-em="1024"
    ascent="896"
    descent="-128"
  />
    <missing-glyph />
    
    <glyph glyph-name="code" unicode="&#59388;" d="M438.4 46.9l222.7 646.7c0.2 0.5 0.3 1.1 0.4 1.6L438.4 46.9zM661.2 727.3h-67.5c-3.4 0-6.5-2.2-7.6-5.4L354.7 50c-0.3-0.8-0.4-1.7-0.4-2.6 0-4.4 3.6-8 8-8h67.8c3.4 0 6.5 2.2 7.6 5.4l0.7 2.1 223.1 648.3 7.4 21.4c0.3 0.8 0.4 1.7 0.4 2.6-0.1 4.5-3.6 8.1-8.1 8.1zM954.6 393.9c-0.8 1-1.7 1.9-2.7 2.7l-219 171.3c-3.5 2.7-8.5 2.1-11.2-1.4-1.1-1.4-1.7-3.1-1.7-4.9v-81.3c0-2.5 1.1-4.8 3.1-6.3l115-90-115-90c-1.9-1.5-3.1-3.8-3.1-6.3v-81.3c0-4.4 3.6-8 8-8 1.8 0 3.5 0.6 4.9 1.7l219 171.3c6.9 5.4 8.2 15.5 2.7 22.5zM291.1 567.9l-219-171.3c-1-0.8-1.9-1.7-2.7-2.7-5.4-7-4.2-17 2.7-22.5l219-171.3c1.4-1.1 3.1-1.7 4.9-1.7 4.4 0 8 3.6 8 8v81.3c0 2.5-1.1 4.8-3.1 6.3l-115 90 115 90c1.9 1.5 3.1 3.8 3.1 6.3v81.3c0 1.8-0.6 3.5-1.7 4.9-2.7 3.5-7.7 4.1-11.2 1.4z"  horiz-adv-x="1024" />

    
    <glyph glyph-name="check-circle" unicode="&#59124;" d="M512-127.998293A511.999147 511.999147 0 0 0 149.973937 746.026917a511.999147 511.999147 0 0 0 724.094793-724.094794A508.671152 508.671152 0 0 0 512-127.998293zM277.333724 429.568777a36.010607 36.010607 0 0 1-17.877303-4.778658 35.83994 35.83994 0 0 1-13.397311-49.066585l108.885152-190.421016a35.96794 35.96794 0 0 1 49.066585-13.482644 34.645276 34.645276 0 0 1 8.533319 6.698655l0.383999 0.426666L772.266233 539.605927a36.010607 36.010607 0 0 1-51.199915 50.815916l-327.508787-328.532786-85.333191 149.333084a35.882607 35.882607 0 0 1-30.890616 18.346636z"  horiz-adv-x="1024" />

    
    <glyph glyph-name="clock-circle" unicode="&#59125;" d="M512-127.998293A511.999147 511.999147 0 0 0 149.973937 746.026917a511.999147 511.999147 0 0 0 724.094793-724.094794A508.671152 508.671152 0 0 0 512-127.998293z m0 796.030673a36.053273 36.053273 0 0 1-35.96794-36.010607v-239.9996a72.06388 72.06388 0 0 1 71.978547-72.021213h185.002358a36.010607 36.010607 0 0 1 0 71.978547h-185.002358V631.979107A36.053273 36.053273 0 0 1 512 668.03238z"  horiz-adv-x="1024" />

    
    <glyph glyph-name="clock-circle-o" unicode="&#59126;" d="M512-127.998293A511.999147 511.999147 0 0 0 149.973937 746.026917a511.999147 511.999147 0 0 0 724.094793-724.094794A508.671152 508.671152 0 0 0 512-127.998293z m0 951.97708a438.825935 438.825935 0 0 1-311.210148-128.895785A438.100603 438.100603 0 0 1 72.022067 384.000853a439.849934 439.849934 0 0 1 750.932081-311.124814 439.465934 439.465934 0 0 1 0 622.292296A438.100603 438.100603 0 0 1 512 823.978787zM733.012965 320.00096h-185.002358a72.06388 72.06388 0 0 0-71.978547 71.978547V631.979107a36.010607 36.010607 0 1 0 72.021213 0v-239.9996h184.959692a36.010607 36.010607 0 0 0 0-72.021214z"  horiz-adv-x="1024" />

    
    <glyph glyph-name="close-circle" unicode="&#59127;" d="M512-127.998293A511.999147 511.999147 0 0 0 149.973937 746.026917a511.999147 511.999147 0 0 0 724.094793-724.094794A508.671152 508.671152 0 0 0 512-127.998293z m0 461.012565l154.28241-154.666409a35.96794 35.96794 0 0 1 50.901248 0 36.09594 36.09594 0 0 1 0 50.901248L562.773249 384.000853l154.538409 154.965075a35.96794 35.96794 0 0 1-25.599958 61.397231 35.583941 35.583941 0 0 1-25.599957-10.581315L512 435.200768 357.71759 589.696511a35.96794 35.96794 0 1 1-51.199914-50.773249L461.184085 384.000853l-154.495743-154.879742a36.010607 36.010607 0 0 1 25.599958-61.397231 35.455941 35.455941 0 0 1 25.599957 10.581316L512 332.800939z"  horiz-adv-x="1024" />

    
    <glyph glyph-name="close-circle-o" unicode="&#59128;" d="M512-127.998293A511.999147 511.999147 0 0 0 149.973937 746.026917a511.999147 511.999147 0 0 0 724.094793-724.094794A508.671152 508.671152 0 0 0 512-127.998293z m0 951.97708A440.1486 440.1486 0 0 1 340.821619-21.331804a440.063267 440.063267 0 0 1 482.132529 716.798805A438.100603 438.100603 0 0 1 512 823.978787z m179.8397-656.425573a35.455941 35.455941 0 0 0-25.599957 10.581316L512 332.800939l-154.28241-154.495743a36.010607 36.010607 0 0 0-51.199914 50.815915L461.184085 384.000853 306.688342 538.923262a35.96794 35.96794 0 1 0 51.199915 50.773249L512 435.200768l154.325076 154.666409a35.925273 35.925273 0 1 0 50.901249-50.773249L562.773249 384.000853l154.538409-155.007741a36.010607 36.010607 0 0 0-25.599958-61.397231z"  horiz-adv-x="1024" />

    
    <glyph glyph-name="check-circle-o" unicode="&#59129;" d="M512-127.998293A511.999147 511.999147 0 0 0 149.973937 746.026917a511.999147 511.999147 0 0 0 724.094793-724.094794A508.671152 508.671152 0 0 0 512-127.998293z m0 951.97708A440.1486 440.1486 0 0 1 340.821619-21.331804a440.063267 440.063267 0 0 1 482.132529 716.798805A438.100603 438.100603 0 0 1 512 823.978787z m-125.994457-657.065572a36.053273 36.053273 0 0 0-31.274614 18.218636l-108.799819 190.50635a35.925273 35.925273 0 0 0 13.397311 49.066584 35.882607 35.882607 0 0 0 49.066585-13.397311l85.333191-149.333084 327.508788 328.532786a36.010607 36.010607 0 0 0 50.858582-51.199915l-359.423401-360.490066-0.384-0.383999a37.589271 37.589271 0 0 0-8.533319-6.741322 35.498608 35.498608 0 0 0-17.749304-4.693326z"  horiz-adv-x="1024" />

    
    <glyph glyph-name="down-circle" unicode="&#59131;" d="M512.018364-128A512.021354 512.021354 0 0 0 149.986083 746.053635a512.021354 512.021354 0 0 0 724.10727-724.10727 508.690161 508.690161 0 0 0-362.074989-149.946365zM291.006561 490.961171A36.002502 36.002502 0 0 1 264.826806 430.487217l220.969095-235.788631a36.002502 36.002502 0 0 1 52.487634 0l221.011803 235.788631a36.002502 36.002502 0 0 1-52.487634 49.284564l-194.703925-207.687033L317.229024 479.600951a36.04521 36.04521 0 0 1-26.222463 11.36022z"  horiz-adv-x="1024" />

    
    <glyph glyph-name="down-circle-o" unicode="&#59132;" d="M512.018364-128A512.021354 512.021354 0 0 0 149.986083 746.053635a512.021354 512.021354 0 0 0 724.10727-724.10727 508.690161 508.690161 0 0 0-362.074989-149.946365z m0 951.994995a440.144472 440.144472 0 0 1-171.214747-845.610376A440.229887 440.229887 0 0 1 683.361235 789.487259a437.283063 437.283063 0 0 1-171.342871 34.507736z m0-640.912875a36.04521 36.04521 0 0 0-26.307878 11.402928L264.826806 430.487217a36.002502 36.002502 0 0 0 52.402218 49.113734l194.78934-207.772449 194.703925 207.687034a36.002502 36.002502 0 1 0 52.487634-49.284565L538.155412 194.399633a35.87438 35.87438 0 0 0-26.137048-11.274805z"  horiz-adv-x="1024" />

    
    <glyph glyph-name="exclamation-circle" unicode="&#59133;" d="M512-127.998293A511.999147 511.999147 0 0 0 149.973937 746.026917a511.999147 511.999147 0 0 0 724.094793-724.094794A508.671152 508.671152 0 0 0 512-127.998293z m0 319.999466a45.013258 45.013258 0 1 1 45.013258-45.013258A45.055925 45.055925 0 0 1 512 192.001173z m0 512.980479a40.021267 40.021267 0 0 1-39.9786-40.021267v-368.980718a39.9786 39.9786 0 1 1 79.999867 0V665.003052A40.063933 40.063933 0 0 1 512 704.981652z"  horiz-adv-x="1024" />

    
    <glyph glyph-name="exclamation-circle-o" unicode="&#59134;" d="M512-127.998293A511.999147 511.999147 0 0 0 149.973937 746.026917a511.999147 511.999147 0 0 0 724.094793-724.094794A508.671152 508.671152 0 0 0 512-127.998293z m0 951.97708A440.1486 440.1486 0 0 1 340.821619-21.331804a440.063267 440.063267 0 0 1 482.132529 716.798805A438.100603 438.100603 0 0 1 512 823.978787z m0-722.00413a45.013258 45.013258 0 1 0 45.013258 45.013258A45.055925 45.055925 0 0 0 512 102.017323zM512 256.001067a40.021267 40.021267 0 0 0-39.9786 40.021266V665.003052a39.9786 39.9786 0 1 0 79.999867 0v-368.980719A40.063933 40.063933 0 0 0 512 256.001067z"  horiz-adv-x="1024" />

    
    <glyph glyph-name="frown" unicode="&#59135;" d="M512-127.998293A511.999147 511.999147 0 0 0 149.973937 746.026917a511.999147 511.999147 0 0 0 724.094793-724.094794A508.671152 508.671152 0 0 0 512-127.998293z m0 386.815355a92.415846 92.415846 0 0 0 92.287846-92.415846 36.010607 36.010607 0 1 1 72.021213 0 164.309059 164.309059 0 0 1-328.532785 0 36.010607 36.010607 0 1 1 72.021213 0A92.373179 92.373179 0 0 0 512 258.774395z m257.492904 314.794142a59.989233 59.989233 0 1 1 60.0319-59.989233 60.0319 60.0319 0 0 1-60.0319 59.989233z m-515.284474 0a59.989233 59.989233 0 1 1 59.989233-59.989233 60.074567 60.074567 0 0 1-59.989233 59.989233z"  horiz-adv-x="1024" />

    
    <glyph glyph-name="frown-o" unicode="&#59136;" d="M512-127.998293A511.999147 511.999147 0 0 0 149.973937 746.026917a511.999147 511.999147 0 0 0 724.094793-724.094794A508.671152 508.671152 0 0 0 512-127.998293z m0 951.97708a438.825935 438.825935 0 0 1-311.210148-128.895785A438.100603 438.100603 0 0 1 72.022067 384.000853a439.849934 439.849934 0 0 1 750.932081-311.124814 439.465934 439.465934 0 0 1 0 622.292296A438.100603 438.100603 0 0 1 512 823.978787z m128.298453-693.502844a36.053273 36.053273 0 0 0-35.96794 36.010606 92.287846 92.287846 0 0 1-184.575693 0 36.010607 36.010607 0 1 0-71.978546 0 164.309059 164.309059 0 0 0 328.532785 0 36.053273 36.053273 0 0 0-36.010606-36.010606z m129.237118 323.114128a59.989233 59.989233 0 1 0 60.0319 60.0319 60.074567 60.074567 0 0 0-60.074567-60.0319z m-515.284475 0a59.989233 59.989233 0 1 0 59.946567 60.0319 60.074567 60.074567 0 0 0-59.989233-60.0319z"  horiz-adv-x="1024" />

    
    <glyph glyph-name="camera" unicode="&#59137;" d="M923.349333-0.2986670000000231H149.290667a63.36 63.36 0 0 0-63.274667 63.104V594.688a63.36 63.36 0 0 0 63.274667 63.317333h167.808l94.336 99.712a39.082667 39.082667 0 0 0 26.794666 9.984h195.797334a39.338667 39.338667 0 0 0 26.709333-9.728l0.426667-0.384 93.866666-99.626666h168.32a63.36 63.36 0 0 0 63.274667-63.274667v-531.882667a63.36 63.36 0 0 0-63.274667-63.104z m-387.84 510.976a173.909333 173.909333 0 1 1 173.909334-173.909333 174.08 174.08 0 0 1-173.909334 173.909333z m-83.370666 184.490667l-34.901334-37.034667h237.696l-34.816 37.034667h-167.978666z m83.413333-460.8a102.784 102.784 0 1 0 72.533333 30.122667 101.888 101.888 0 0 0-72.576-30.378667z"  horiz-adv-x="1024" />

    
    <glyph glyph-name="coord" unicode="&#59143;" d="M512-66.94399999999996a39.722667 39.722667 0 0 0-22.826667 7.168 1186.133333 1186.133333 0 0 0-212.181333 191.701333 744.576 744.576 0 0 0-108.672 164.096 459.52 459.52 0 0 0-46.933333 196.522667 297.984 297.984 0 0 0 32 133.717333 350.250667 350.250667 0 0 0 85.717333 109.056A407.509333 407.509333 0 0 0 363.52 808.533333a424.746667 424.746667 0 0 0 297.002667 0 408.661333 408.661333 0 0 0 124.416-73.173333 349.866667 349.866667 0 0 0 85.632-109.098667 298.666667 298.666667 0 0 0 32.042666-133.888 460.032 460.032 0 0 0-46.933333-196.48 749.269333 749.269333 0 0 0-108.586667-164.138666 1188.010667 1188.010667 0 0 0-212.181333-191.701334 40.064 40.064 0 0 0-22.912-6.997333z m0 735.402667a201.770667 201.770667 0 1 1 142.72-59.264A200.533333 200.533333 0 0 1 512 668.458667z m0-332.501334a130.517333 130.517333 0 1 0 130.474667 130.474667A130.645333 130.645333 0 0 0 512 336.12800000000004z"  horiz-adv-x="1024" />

    
    <glyph glyph-name="coord-o" unicode="&#59144;" d="M512-66.94399999999996a39.722667 39.722667 0 0 0-22.826667 7.168 1186.133333 1186.133333 0 0 0-212.181333 191.701333 744.576 744.576 0 0 0-108.672 164.096 459.52 459.52 0 0 0-46.933333 196.522667 297.984 297.984 0 0 0 32 133.717333 350.250667 350.250667 0 0 0 85.717333 109.056A407.509333 407.509333 0 0 0 363.52 808.533333a424.746667 424.746667 0 0 0 297.002667 0 408.661333 408.661333 0 0 0 124.416-73.173333 349.866667 349.866667 0 0 0 85.632-109.098667 298.666667 298.666667 0 0 0 32.042666-133.888 460.032 460.032 0 0 0-46.933333-196.48 749.269333 749.269333 0 0 0-108.586667-164.138666 1188.010667 1188.010667 0 0 0-212.181333-191.701334 40.064 40.064 0 0 0-22.912-6.997333zM512 764.16a352.896 352.896 0 0 1-123.477333-22.314667 335.317333 335.317333 0 0 1-102.4-60.416 281.6 281.6 0 0 1-68.864-86.784 226.133333 226.133333 0 0 1-24.490667-102.101333 389.418667 389.418667 0 0 1 40.192-166.101333 676.864 676.864 0 0 1 98.133333-148.181334 1116.714667 1116.714667 0 0 1 180.693334-166.4 1105.749333 1105.749333 0 0 1 180.693333 166.4 671.232 671.232 0 0 1 98.133333 148.096 389.077333 389.077333 0 0 1 40.192 166.058667 228.224 228.224 0 0 1-24.490666 102.4 275.626667 275.626667 0 0 1-68.266667 86.784 336.042667 336.042667 0 0 1-102.698667 60.416 350.805333 350.805333 0 0 1-123.434666 22.314667z m0-499.626667a201.770667 201.770667 0 1 0 142.72 59.093334A200.533333 200.533333 0 0 0 512 264.53333299999997z m0 332.416a130.517333 130.517333 0 1 1 130.474667-130.517333A130.688 130.688 0 0 1 512 596.949333z"  horiz-adv-x="1024" />

    
    <glyph glyph-name="see-o" unicode="&#59146;" d="M512 50.94399999999996a510.506667 510.506667 0 0 0-230.4 50.304 409.856 409.856 0 0 0-138.197333 111.872 468.010667 468.010667 0 0 0-61.824 108.501333 363.776 363.776 0 0 0-20.906667 62.208v0.384a347.178667 347.178667 0 0 0 20.821333 62.122667 463.274667 463.274667 0 0 0 61.781334 108.544 413.866667 413.866667 0 0 0 138.197333 111.957333 509.653333 509.653333 0 0 0 230.4 50.176 509.525333 509.525333 0 0 0 230.4-50.133333 410.453333 410.453333 0 0 0 138.325333-112 462.464 462.464 0 0 0 61.909334-108.586667 359.68 359.68 0 0 0 20.906666-62.08v-0.597333a359.594667 359.594667 0 0 0-20.906666-62.08 463.104 463.104 0 0 0-61.909334-108.586667 412.928 412.928 0 0 0-138.197333-111.786666 510.08 510.08 0 0 0-230.4-50.218667z m0 594.773333a440.746667 440.746667 0 0 1-198.613333-42.666666 341.76 341.76 0 0 1-114.517334-92.544 443.178667 443.178667 0 0 1-64.682666-126.293334 439.125333 439.125333 0 0 1 64.682666-126.293333 340.181333 340.181333 0 0 1 114.304-92.714667 439.466667 439.466667 0 0 1 198.357334-42.666666 439.765333 439.765333 0 0 1 198.4 42.666666 340.48 340.48 0 0 1 114.474666 92.629334l0.512 0.512a439.466667 439.466667 0 0 1 64.256 125.866666 442.581333 442.581333 0 0 1-64.768 126.208 340.181333 340.181333 0 0 1-114.304 92.714667 437.077333 437.077333 0 0 1-198.229333 42.581333z m0-434.090666a173.312 173.312 0 1 0 173.312 173.312 173.482667 173.482667 0 0 0-173.44-173.312z m0 275.285333a102.058667 102.058667 0 1 1 72.106667-29.866667 101.333333 101.333333 0 0 1-72.234667 29.866667z"  horiz-adv-x="1024" />

    
    <glyph glyph-name="see" unicode="&#59147;" d="M512 50.94399999999996a510.293333 510.293333 0 0 0-230.4 50.304 410.24 410.24 0 0 0-138.197333 111.872 467.925333 467.925333 0 0 0-61.824 108.501333 363.776 363.776 0 0 0-20.906667 62.208v0.384a348.928 348.928 0 0 0 20.821333 62.122667 463.146667 463.146667 0 0 0 61.781334 108.544 413.568 413.568 0 0 0 138.197333 111.957333 509.44 509.44 0 0 0 230.4 50.176 509.525333 509.525333 0 0 0 230.4-50.133333 410.837333 410.837333 0 0 0 138.325333-112 463.061333 463.061333 0 0 0 61.909334-108.586667 359.68 359.68 0 0 0 20.906666-62.08v-0.597333a359.594667 359.594667 0 0 0-20.906666-62.08 461.610667 461.610667 0 0 0-61.909334-108.586667 412.586667 412.586667 0 0 0-138.197333-111.786666 509.824 509.824 0 0 0-230.4-50.218667z m0 507.178667a173.312 173.312 0 1 1 173.312-173.312 173.482667 173.482667 0 0 1-173.44 173.312z m0-275.285334a102.016 102.016 0 1 0 72.106667 29.866667 101.461333 101.461333 0 0 0-72.234667-29.866667z"  horiz-adv-x="1024" />

    
    <glyph glyph-name="like" unicode="&#59148;" d="M999.13984 648.277333a306.261333 306.261333 0 0 1-65.621333 98.816 280.832 280.832 0 0 1-421.973334-22.357333A280.277333 280.277333 0 0 1 89.44384 746.666667 306.090667 306.090667 0 0 1 23.694507 647.296a310.784 310.784 0 0 1-23.594667-122.112 309.248 309.248 0 0 1 107.989333-234.666667c3.114667-2.602667 5.973333-5.077333 8.874667-7.808 14.890667-13.397333 57.941333-52.736 112.469333-102.4 93.397333-85.333333 209.706667-191.701333 257.237334-233.984a37.888 37.888 0 0 1 24.874666-9.472 37.290667 37.290667 0 0 1 24.874667 9.472c34.474667 30.677333 105.685333 95.786667 181.205333 164.821334 74.112 67.754667 150.741333 137.856 195.626667 178.005333a308.352 308.352 0 0 1 109.781333 237.056 315.136 315.136 0 0 1-23.893333 122.069333z"  horiz-adv-x="1024" />

    
    <glyph glyph-name="like-o" unicode="&#59150;" d="M511.616-63.23199999999997a37.888 37.888 0 0 0-24.874667 9.472 34791.04 34791.04 0 0 0-257.152 233.856l-22.784 20.821333c-43.050667 39.296-77.013333 70.357333-89.813333 81.877334-2.816 2.645333-5.674667 5.077333-8.874667 7.808a314.368 314.368 0 0 0-84.437333 356.693333A306.304 306.304 0 0 0 89.386667 746.666667a281.6 281.6 0 0 0 200.832 85.333333 284.373333 284.373333 0 0 0 221.184-107.306667 280.832 280.832 0 0 0 421.973333 22.4 307.2 307.2 0 0 0 65.664-98.816 315.349333 315.349333 0 0 0 23.978667-122.112 308.266667 308.266667 0 0 0-109.866667-237.013333c-41.770667-37.418667-112.256-101.845333-180.394667-164.138667l-14.976-13.696-3.925333-3.584c-73.856-67.498667-143.445333-131.114667-177.28-161.237333a37.162667 37.162667 0 0 0-24.96-9.728zM290.218667 755.2A205.738667 205.738667 0 0 1 143.786667 692.352 229.717333 229.717333 0 0 1 94.378667 617.8133330000001a237.525333 237.525333 0 0 1-17.792-92.117333 232.917333 232.917333 0 0 1 81.066666-176.512c2.048-1.664 3.968-3.370667 5.845334-5.034667l2.346666-2.048 2.261334-2.133333c12.032-10.752 43.733333-39.637333 94.250666-85.888l47.274667-43.178667c40.192-36.736 140.373333-128.256 202.112-184.064 29.184 26.453333 73.685333 67.029333 153.6 140.074667a29150.72 29150.72 0 0 0 197.333333 179.626667l1.749334 1.578666a232.106667 232.106667 0 0 1 59.733333 77.44 235.904 235.904 0 0 1 22.656 101.162667 240.725333 240.725333 0 0 1-18.090667 92.202667 227.712 227.712 0 0 1-49.152 74.026666A205.866667 205.866667 0 0 1 732.672 755.2a208.341333 208.341333 0 0 1-165.418667-83.626667 70.4 70.4 0 0 0-55.466666-27.392h-0.256a70.997333 70.997333 0 0 0-55.765334 27.392 208.469333 208.469333 0 0 1-165.546666 83.626667z"  horiz-adv-x="1024" />

    
    <glyph glyph-name="android" unicode="&#59158;" d="M402.56-128a62.890667 62.890667 0 0 0-62.293333 63.317333v137.557334h-55.466667a48.64 48.64 0 0 0-48.64 48.597333V573.226667h554.282667V121.60000000000002a48.682667 48.682667 0 0 0-48.597334-48.597333h-55.466666v-137.6a62.293333 62.293333 0 1 0-124.586667 0V72.96000000000004h-97.024v-137.642667A62.890667 62.890667 0 0 0 402.56-128z m485.162667 329.301333a62.848 62.848 0 0 0-62.293334 63.274667V512a62.293333 62.293333 0 1 0 124.586667 0v-247.466667a62.848 62.848 0 0 0-62.378667-63.274666z m-751.317334 0A62.848 62.848 0 0 0 74.026667 264.53333299999997V512a62.848 62.848 0 0 0 62.293333 63.146667A62.848 62.848 0 0 0 198.613333 512v-247.466667a62.848 62.848 0 0 0-62.293333-63.274666z m652.8 412.16H234.794667a240.469333 240.469333 0 0 0 145.834666 193.749334L329.386667 881.493333a10.581333 10.581333 0 0 0-1.792 7.210667 8.106667 8.106667 0 0 0 3.541333 5.802667A7.936 7.936 0 0 0 335.744 896a9.856 9.856 0 0 0 8.021333-4.266667l53.248-77.397333a318.72 318.72 0 0 0 229.973334 0L680.192 891.733333a9.813333 9.813333 0 0 0 8.021333 4.266667 8.533333 8.533333 0 0 0 4.693334-1.408 9.386667 9.386667 0 0 0 1.706666-12.8l-51.2-74.325333a240.512 240.512 0 0 0 145.749334-193.834667z m-156.245333 138.026667a30.72 30.72 0 1 1 30.677333-30.677333 30.72 30.72 0 0 1-30.677333 30.677333z m-237.696 0a30.72 30.72 0 1 1 30.72-30.677333 30.72 30.72 0 0 1-30.890667 30.677333z"  horiz-adv-x="1024" />

    
    <glyph glyph-name="apple-o" unicode="&#59159;" d="M361.002667-128c-63.274667 0-110.933333 61.354667-158.208 129.706667a645.589333 645.589333 0 0 0-99.2 246.826666 405.333333 405.333333 0 0 0 34.133333 269.056 252.032 252.032 0 0 0 211.797333 128.426667h2.816a285.184 285.184 0 0 0 102.997334-26.368 193.962667 193.962667 0 0 1 63.402666-18.048 197.034667 197.034667 0 0 1 61.312 18.005333 330.282667 330.282667 0 0 0 118.485334 29.866667c4.992 0 10.282667-0.256 16.213333-0.810667a237.397333 237.397333 0 0 0 187.178667-101.504l-0.725334-0.469333a229.077333 229.077333 0 0 1-109.781333-194.517333 226.133333 226.133333 0 0 1 137.130667-207.104h0.256c0-0.426667-0.256-0.810667-0.426667-1.322667a567.978667 567.978667 0 0 0-70.485333-144.256c-39.936-58.325333-85.333333-124.458667-156.672-125.781333h-3.114667a175.872 175.872 0 0 0-75.861333 19.072h-0.256a204.330667 204.330667 0 0 1-89.813334 21.333333 216.362667 216.362667 0 0 1-93.866666-22.229333 195.157333 195.157333 0 0 0-73.813334-19.882667h-3.498666zM350.848 573.9093330000001a169.045333 169.045333 0 0 1-85.333333-25.002666 189.354667 189.354667 0 0 1-65.066667-67.328 257.365333 257.365333 0 0 1-31.104-100.778667 423.125333 423.125333 0 0 1 5.205333-119.765333A579.712 579.712 0 0 1 262.144 42.66666699999996a508.373333 508.373333 0 0 1 60.672-76.501334 68.992 68.992 0 0 1 38.4-22.101333h0.810667a127.573333 127.573333 0 0 1 48.128 14.037333h0.213333a288.938667 288.938667 0 0 0 122.026667 27.861334 275.242667 275.242667 0 0 0 118.442666-27.392 109.397333 109.397333 0 0 1 47.488-13.312h1.706667a59.733333 59.733333 0 0 1 40.576 20.608 463.616 463.616 0 0 1 58.026667 73.898666 494.933333 494.933333 0 0 1 41.258666 73.813334 330.112 330.112 0 0 0-32.170666 27.477333 298.453333 298.453333 0 0 0-67.797334 320 297.685333 297.685333 0 0 0 46.336 78.421333c3.626667 4.266667 6.826667 8.192 9.770667 11.392a167.637333 167.637333 0 0 1-24.704 12.501334 184.277333 184.277333 0 0 1-59.733333 13.098666h-4.181334a90.069333 90.069333 0 0 1-9.002666 0.426667 271.146667 271.146667 0 0 1-91.946667-24.874667 245.504 245.504 0 0 0-87.978667-23.04 247.466667 247.466667 0 0 0-89.770666 23.594667 231.168 231.168 0 0 1-76.373334 21.333333z m173.653333 85.802667c-3.456 0-6.954667 0-10.368 0.384a213.930667 213.930667 0 0 0 50.901334 158.421333A228.992 228.992 0 0 0 715.818667 896a225.365333 225.365333 0 0 0-53.290667-163.413333 186.624 186.624 0 0 0-138.026667-72.874667z"  horiz-adv-x="1024" />

    
    <glyph glyph-name="android-o" unicode="&#59160;" d="M633.123147-127.95733600000005a83.493483 83.493483 0 0 0-84.858732 85.029388v66.385212h-72.52883v-66.555868a84.94406 84.94406 0 1 0-169.88812 0v66.769188h-36.349743a60.710898 60.710898 0 0 0-60.625569 60.625569v106.660045a65.702588 65.702588 0 0 0-12.159246-1.109264 83.493483 83.493483 0 0 0-85.072051 85.200044V543.574306a84.94406 84.94406 0 0 0 24.53181 60.540242 84.73074 84.73074 0 0 0 60.454913 24.361154 58.961673 58.961673 0 0 0 12.159245-1.109264V628.475702h6.314275a233.030866 233.030866 0 0 0 41.597418 99.833802 277.316117 277.316117 0 0 0 82.341554 74.406047l-25.598411 36.904376a31.443381 31.443381 0 0 0-7.594195 19.838768A35.325807 35.325807 0 0 0 342.367865 895.979095a36.563063 36.563063 0 0 0 29.5235-17.534912l33.405926-48.082348a341.824112 341.824112 0 0 0 213.704066 0l33.405926 48.082348A36.264415 36.264415 0 0 0 681.930783 895.979095a35.325807 35.325807 0 0 0 36.5204-36.5204 38.738928 38.738928 0 0 0-1.450577-9.428748v-0.725288c0-0.725288-0.255984-1.407913-0.42664-2.090537v-0.85328a6.527595 6.527595 0 0 1-0.21332-1.450577v-3.797097l-28.584892-40.914794a283.075759 283.075759 0 0 0 80.59233-74.235391 246.598024 246.598024 0 0 0 42.962666-99.791138h4.266402v-1.109264a65.574596 65.574596 0 0 0 12.159245 1.109264 82.981515 82.981515 0 0 0 84.602747-84.986724v-268.442a83.493483 83.493483 0 0 0-84.986723-84.901396 56.956464 56.956464 0 0 0-12.159245 1.109264v-104.441516a60.753562 60.753562 0 0 0-60.668234-60.668233h-36.264415V-42.629299999999944a84.773404 84.773404 0 0 0-24.531811-60.497578 83.536147 83.536147 0 0 0-60.625569-24.830458z m-11.689941 151.62792v-66.555868a11.092645 11.092645 0 0 1 12.159245-12.159245 10.793997 10.793997 0 0 1 11.988589 9.98338v68.731733z m-242.502278 0v-66.555868a11.092645 11.092645 0 0 1 12.159245-12.159245 10.793997 10.793997 0 0 1 11.988589 9.98338v68.731733zM281.827623 553.131046v-456.504992h460.771394v456.504992z m545.758118 0a11.049981 11.049981 0 0 1-12.159245-12.116581v-268.783313a12.159245 12.159245 0 1 1 24.361154 0v268.783313a11.049981 11.049981 0 0 1-12.201909 12.287238zM196.968892 553.301703a11.049981 11.049981 0 0 1-12.159246-12.116582v-268.783313a11.092645 11.092645 0 0 1 12.159246-12.116581 11.049981 11.049981 0 0 1 12.116581 12.159245v268.783313a11.049981 11.049981 0 0 1-12.116581 12.073918z m315.287092 220.999612a261.146454 261.146454 0 0 1-153.931777-48.380996 181.79138 181.79138 0 0 1-71.334238-100.13245h450.361374a180.767444 180.767444 0 0 1-71.419566 99.961794 261.359774 261.359774 0 0 1-153.803785 48.551652zM585.083463 638.715066a35.325807 35.325807 0 0 0-36.5204 36.5204 35.325807 35.325807 0 0 0 36.5204 36.520399 34.941831 34.941831 0 0 0 36.477735-36.392407 35.368471 35.368471 0 0 0-36.477735-36.648392z m-145.654958 0a35.325807 35.325807 0 0 0-36.520399 36.5204 35.325807 35.325807 0 0 0 36.520399 36.520399 36.648391 36.648391 0 0 0 26.281036-10.367356 36.392407 36.392407 0 0 0 10.239364-26.153043 35.325807 35.325807 0 0 0-36.5204-36.5204z"  horiz-adv-x="1024" />

    
    <glyph glyph-name="apple" unicode="&#59161;" d="M361.130667-128c-63.189333 0-110.933333 61.354667-157.866667 129.664a645.376 645.376 0 0 0-99.456 246.997333 404.906667 404.906667 0 0 0 34.133333 269.013334 251.733333 251.733333 0 0 0 211.797334 128.426666h2.56a284.885333 284.885333 0 0 0 102.912-26.368 194.389333 194.389333 0 0 1 63.616-18.133333 198.314667 198.314667 0 0 1 61.269333 17.962667 331.050667 331.050667 0 0 0 118.4 29.866666 162.133333 162.133333 0 0 0 16.341333-0.810666 237.482667 237.482667 0 0 0 187.221334-101.504l-0.725334-0.469334a228.864 228.864 0 0 1-109.738666-194.474666 224.853333 224.853333 0 0 1 137.173333-207.104v-1.024a563.2 563.2 0 0 0-70.570667-144.64c-39.936-58.325333-85.333333-124.458667-156.714666-125.781334h-3.029334a175.957333 175.957333 0 0 0-76.16 19.2 204.288 204.288 0 0 1-89.6 21.333334 216.917333 216.917333 0 0 1-93.866666-22.229334 194.048 194.048 0 0 0-73.642667-19.754666z m163.370666 787.712c-3.456 0-6.954667 0-10.368 0.384a213.888 213.888 0 0 0 50.901334 158.421333A229.162667 229.162667 0 0 0 715.861333 896a225.536 225.536 0 0 0-53.12-163.370667 186.624 186.624 0 0 0-138.24-72.917333z"  horiz-adv-x="1024" />

    
    <glyph glyph-name="category-o" unicode="&#59162;" d="M887.978667-64h-261.973334a72.064 72.064 0 0 0-71.978666 71.978667v262.016a72.064 72.064 0 0 0 72.021333 71.978666h262.016a72.064 72.064 0 0 0 71.936-71.978666v-262.016a72.064 72.064 0 0 0-72.021333-71.978667z m-262.016 333.994667v-262.016h261.973333v262.016zM397.994667-64h-261.973334A72.064 72.064 0 0 0 64 8.021333000000027v261.973334a72.064 72.064 0 0 0 71.978667 71.978666h262.016a72.064 72.064 0 0 0 72.021333-72.021333v-262.016A72.064 72.064 0 0 0 397.994667-64z m-261.973334 333.994667v-262.016h261.973334v262.016z m751.957334 155.989333h-261.973334a72.064 72.064 0 0 0-71.978666 71.978667V759.978667A72.064 72.064 0 0 0 626.005333 832h262.016A72.064 72.064 0 0 0 960 759.978667v-261.973334a72.064 72.064 0 0 0-72.021333-72.021333z m-261.973334 333.994667v-261.973334h261.973334v261.973334z m-228.010666-333.994667h-261.973334A72.064 72.064 0 0 0 64 498.005333v261.973334A72.064 72.064 0 0 0 136.021333 832h261.973334a72.064 72.064 0 0 0 72.021333-72.021333v-261.973334a72.064 72.064 0 0 0-72.021333-72.021333z m-261.973334 333.994667v-261.973334h261.973334v261.973334z"  horiz-adv-x="1024" />

    
    <glyph glyph-name="category" unicode="&#59163;" d="M887.978667-64h-261.973334a72.064 72.064 0 0 0-71.978666 71.978667v262.016a72.064 72.064 0 0 0 72.021333 71.978666h262.016a72.064 72.064 0 0 0 71.936-71.978666v-262.016a72.064 72.064 0 0 0-72.021333-71.978667z m-489.984 0h-261.973334A72.064 72.064 0 0 0 64 8.021333000000027v261.973334a72.064 72.064 0 0 0 71.978667 71.978666h262.016a72.064 72.064 0 0 0 72.021333-72.021333v-262.016A72.064 72.064 0 0 0 397.994667-64z m489.984 489.984h-261.973334a72.064 72.064 0 0 0-71.978666 71.978667V759.978667A72.064 72.064 0 0 0 626.005333 832h262.016A72.064 72.064 0 0 0 960 759.978667v-261.973334a72.064 72.064 0 0 0-72.021333-72.021333z m-489.984 0h-261.973334A72.064 72.064 0 0 0 64 498.005333v261.973334A72.064 72.064 0 0 0 136.021333 832h261.973334a72.064 72.064 0 0 0 72.021333-72.021333v-261.973334a72.064 72.064 0 0 0-72.021333-72.021333z"  horiz-adv-x="1024" />

    
    <glyph glyph-name="praise" unicode="&#59164;" d="M183.978667-64.08533299999999H135.978667a72.064 72.064 0 0 0-71.978667 72.106666v367.957334a72.064 72.064 0 0 0 71.978667 71.936h48A72.064 72.064 0 0 0 256 375.978667v-367.957334a72.064 72.064 0 0 0-72.021333-72.106666z m184.490666 0a72.021333 72.021333 0 0 0-72.064 72.533333c0.469333 145.066667 0.682667 371.456 0.682667 396.8a81.066667 81.066667 0 0 0 31.018667 58.965333l3.626666 3.84 0.256 0.256a246.997333 246.997333 0 0 1 24.405334 28.032c18.944 30.72 34.133333 57.216 50.048 85.333334 8.021333 14.08 16.341333 28.672 25.6 44.373333a57.173333 57.173333 0 0 1 7.808 32.597333c-0.938667 21.888-1.365333 44.117333-1.792 65.621334-0.256 13.397333-0.512 27.093333-0.896 40.576a55.850667 55.850667 0 0 0 32.725333 53.674666 114.346667 114.346667 0 0 0 52.992 13.397334 125.994667 125.994667 0 0 0 48.853333-10.410667 64 64 0 0 0 36.48-38.912l9.301334-24.405333c8.96-23.466667 18.218667-47.701333 26.538666-71.808a208.128 208.128 0 0 0 4.266667-109.653334c-3.541333-17.962667-6.485333-36.352-9.344-54.101333-1.493333-9.429333-3.029333-18.858667-4.650667-28.288-0.725333-4.522667-1.066667-7.125333 0-8.533333s3.370667-1.450667 8.533334-1.450667h129.109333c37.76 0 68.522667 0 96.810667-0.298667h0.682666a131.754667 131.754667 0 0 0 41.088-6.613333 73.642667 73.642667 0 0 0 46.933334-55.722667c0.938667-3.285333 1.962667-6.442667 2.901333-9.386666v-28.288a5.845333 5.845333 0 0 1-1.408-2.005334 109.866667 109.866667 0 0 0-25.6-53.717333 12.245333 12.245333 0 0 1-0.554667-9.002667c0.810667-4.266667 1.877333-8.533333 2.944-12.8a114.005333 114.005333 0 0 0 4.266667-23.893333 104.490667 104.490667 0 0 0-25.088-69.205333 11.776 11.776 0 0 1-1.92-12.8 123.733333 123.733333 0 0 0 6.656-28.885334 112.128 112.128 0 0 0-25.216-76.074666 11.093333 11.093333 0 0 1-2.304-8.533334 115.2 115.2 0 0 0 5.589333-50.304 101.504 101.504 0 0 0-73.088-91.989333 213.333333 213.333333 0 0 0-66.005333-8.533333c-98.432 0.085333-305.621333-0.128-390.144-0.384z"  horiz-adv-x="1024" />

    
    <glyph glyph-name="praise-o" unicode="&#59166;" d="M738.133333-64H136.021333A72.064 72.064 0 0 0 64 8.021333000000027v367.957334A72.064 72.064 0 0 0 136.021333 448h113.194667a124.672 124.672 0 0 1 82.389333 48.512c17.536 28.117333 34.517333 57.685333 50.944 86.272l2.133334 3.712 12.501333 21.717333 6.912 11.989334 2.56 4.266666a16.469333 16.469333 0 0 1 2.218667 9.898667c-0.810667 18.218667-1.194667 36.778667-1.578667 54.698667v7.168c0 6.016-0.256 12.16-0.384 18.346666V732.4159999999999a87.509333 87.509333 0 0 0 49.365333 83.072 141.312 141.312 0 0 0 65.834667 16.512 146.474667 146.474667 0 0 0 58.794667-12.8 95.146667 95.146667 0 0 0 53.674666-56.789333l9.045334-23.637334 2.176-5.76 0.938666-2.474666c7.082667-18.688 14.421333-37.973333 21.077334-57.344a226.688 226.688 0 0 0 5.12-119.808c-2.346667-11.989333-4.266667-23.850667-6.4-36.352l-0.426667-2.474667-0.298667-1.962667h174.421334a154.197333 154.197333 0 0 0 49.493333-8.106666 102.826667 102.826667 0 0 0 66.602667-76.8c0-0.64 0.384-1.493333 0.682666-2.474667v-0.341333l0.384-1.237334 0.938667-2.986666 1.578667-5.12v-43.989334l-3.882667-5.12a135.765333 135.765333 0 0 0-19.712-44.629333 136.533333 136.533333 0 0 0 4.864-29.568 129.194667 129.194667 0 0 0-23.082667-76.8 116.48 116.48 0 0 0 4.266667-24.32 136.064 136.064 0 0 0-22.698667-83.114667 157.525333 157.525333 0 0 0 2.602667-45.909333 130.176 130.176 0 0 0-92.373333-116.821333 229.546667 229.546667 0 0 0-71.765334-9.258667zM136.021333 375.978667v-368h112v368z m407.594667-367.445334H738.176a160.042667 160.042667 0 0 1 49.749333 6.229334 62.464 62.464 0 0 1 30.549334 20.522666 59.733333 59.733333 0 0 1 12.330666 33.28v0.725334a79.36 79.36 0 0 1-1.365333 24.32l-0.810667 3.370666-5.290666 25.216 15.829333 25.002667a64.981333 64.981333 0 0 1 11.605333 39.381333 41.130667 41.130667 0 0 1-1.621333 8.874667l-9.472 32.341333 18.773333 27.989334a56.448 56.448 0 0 1 10.922667 33.493333 61.610667 61.610667 0 0 1-2.176 12.8l-9.344 32.426667 18.944 27.861333a64.64 64.64 0 0 1 9.301333 21.12l1.877334 7.808v13.610667a10.026667 10.026667 0 0 1-0.810667 3.157333 22.058667 22.058667 0 0 0-0.768 2.432c-4.693333 18.389333-12.8 23.68-20.437333 26.368a83.541333 83.541333 0 0 1-25.898667 4.266667H838.613333c-30.976 0.256-60.885333 0.256-87.296 0.256h-170.24l13.824 83.413333c2.858667 17.621333 5.12 30.506667 7.552 43.136a156.288 156.288 0 0 1-2.474666 82.474667c-7.253333 20.992-15.189333 41.941333-23.381334 63.317333l-5.717333 15.146667-3.413333 8.746666a23.552 23.552 0 0 1-14.08 15.701334 82.645333 82.645333 0 0 1-31.104 6.698666 68.522667 68.522667 0 0 1-32.426667-8.277333 23.765333 23.765333 0 0 1-9.386667-7.722667 16.554667 16.554667 0 0 1-1.877333-9.6c0-7.125333 0.341333-14.293333 0.512-21.973333v-0.725333c0-4.48 0-9.173333 0.298667-14.122667v-1.706667c0.341333-21.333333 0.725333-39.466667 1.493333-57.216a87.424 87.424 0 0 0-11.904-50.304 470.613333 470.613333 0 0 0-5.12-8.832l-2.602667-4.266666-12.501333-21.802667-1.365333-2.389333v-0.213334l-0.682667-1.066666c-16.298667-28.416-34.773333-60.586667-53.674667-91.008a173.141333 173.141333 0 0 0-71.509333-62.421334l-1.237333-388.266666h149.888c25.728 0.426667 50.346667 0.426667 73.429333 0.426666z"  horiz-adv-x="1024" />

    
    <glyph glyph-name="cai" unicode="&#59168;" d="M522.837333-64a114.090667 114.090667 0 0 0-52.949333 13.397333 55.765333 55.765333 0 0 0-32.810667 53.802667c0.384 13.653333 0.64 27.306667 0.896 40.576 0.426667 21.333333 0.853333 43.776 1.792 65.664a57.216 57.216 0 0 1-7.808 32.597333c-9.173333 15.744-17.493333 30.293333-25.6 44.373334a2923.818667 2923.818667 0 0 1-50.048 85.333333 246.997333 246.997333 0 0 1-24.405333 28.032l-0.256 0.256-3.626667 3.84a81.066667 81.066667 0 0 0-31.018666 59.093333c0 41.642667-0.256 256.512-0.682667 396.8A71.936 71.936 0 0 0 368.298667 832h390.186666a213.333333 213.333333 0 0 0 66.005334-8.533333 101.504 101.504 0 0 0 73.088-91.989334 115.2 115.2 0 0 0-5.589334-50.304 11.093333 11.093333 0 0 1 2.304-8.533333 112.170667 112.170667 0 0 0 25.216-76.117333 123.733333 123.733333 0 0 0-6.442666-29.056 11.776 11.776 0 0 1 1.92-12.8 104.490667 104.490667 0 0 0 25.088-69.205334 114.005333 114.005333 0 0 0-4.266667-23.893333c-1.066667-4.266667-2.133333-8.533333-2.944-12.8a12.202667 12.202667 0 0 1 0.597333-9.002667 109.866667 109.866667 0 0 0 25.6-53.717333 5.589333 5.589333 0 0 1 0.938667-2.048V354.64533300000005a338.261333 338.261333 0 0 1-2.645333-8.533333 73.642667 73.642667 0 0 0-46.933334-55.68 130.773333 130.773333 0 0 0-40.746666-6.613333h-1.024c-27.904-0.213333-58.154667-0.341333-95.104-0.341334h-130.816c-5.077333 0-7.381333 0-8.533334-1.450666s-0.768-3.968 0-8.533334c1.621333-9.429333 3.114667-18.858667 4.650667-28.288 2.858667-17.834667 5.802667-36.181333 9.344-54.101333a208.341333 208.341333 0 0 0-4.266667-109.696c-8.533333-24.32-17.749333-48.768-26.794666-72.533333l-9.045334-23.765334a64 64 0 0 0-36.48-38.912 126.08 126.08 0 0 0-48.768-10.197333z m-338.816 384H136.021333A72.064 72.064 0 0 0 64 392.021333V759.978667A72.064 72.064 0 0 0 136.021333 832h48A72.064 72.064 0 0 0 256 759.978667v-368A72.064 72.064 0 0 0 184.021333 320z"  horiz-adv-x="1024" />

    
    <glyph glyph-name="down-arrow-bk" unicode="&#59169;" d="M888.618667-64.63999999999999H135.552a72.064 72.064 0 0 0-72.021333 72.021333V760.448a72.064 72.064 0 0 0 72.021333 72.021333h752.981333a72.277333 72.277333 0 0 0 72.106667-72.021333v-753.066667a72.064 72.064 0 0 0-72.021333-72.021333zM290.986667 511.829333a36.010667 36.010667 0 0 1-26.24-60.672l221.184-235.776a36.010667 36.010667 0 0 1 52.48 0l220.970666 235.818667a36.010667 36.010667 0 0 1-52.48 49.322667l-194.688-207.701334-194.986666 207.658667a35.584 35.584 0 0 1-26.24 11.349333z"  horiz-adv-x="1024" />

    
    <glyph glyph-name="cai-o" unicode="&#59170;" d="M522.112-63.82933300000002a140.8 140.8 0 0 0-65.834667 16.469333 87.722667 87.722667 0 0 0-49.877333 83.114667v8.533333l0.597333 27.818667v7.125333c0.384 17.877333 0.768 36.352 1.578667 54.613333a15.616 15.616 0 0 1-2.218667 9.898667l-8.234666 14.208v0.213333l-13.610667 23.637334-2.090667 3.626666c-16.426667 28.586667-33.365333 58.112-51.2 86.357334a123.989333 123.989333 0 0 1-82.005333 48.384H135.978667A72.064 72.064 0 0 0 64 392.192V760.1493330000001a72.064 72.064 0 0 0 71.978667 72.021334H738.133333a229.546667 229.546667 0 0 0 72.021334-9.813334 130.389333 130.389333 0 0 0 92.373333-116.821333 153.6 153.6 0 0 0-2.602667-45.909333 136.533333 136.533333 0 0 0 22.698667-83.114667 116.394667 116.394667 0 0 0-4.266667-24.32 122.410667 122.410667 0 0 0 18.218667-106.197333 138.496 138.496 0 0 0 19.712-44.586667l3.882667-5.12v-43.989333l-1.493334-5.376-0.896-3.029334c-0.512-1.493333-0.938667-2.986667-1.194666-4.010666a103.466667 103.466667 0 0 0-66.645334-76.8 153.856 153.856 0 0 0-49.493333-8.106667h-174.549333c2.346667-14.72 4.650667-28.074667 7.125333-40.789333a226.773333 226.773333 0 0 0-5.077333-119.808 1804.032 1804.032 0 0 0-24.234667-65.578667l-5.333333-13.994667v-0.213333l-3.498667-9.216a95.786667 95.786667 0 0 0-53.717333-56.96 152.32 152.32 0 0 0-59.050667-12.245333zM320.298667 759.978667l0.597333-387.712A172.16 172.16 0 0 0 392.533333 309.845333a2997.333333 2997.333333 0 0 0 53.802667-91.178666l0.682667-1.066667v-0.213333c2.944-5.248 6.016-10.538667 9.088-15.872l4.821333-8.533334c1.322667-2.176 2.602667-4.266667 3.84-6.656s2.56-4.266667 3.84-6.656a87.466667 87.466667 0 0 0 11.904-50.304c-0.682667-18.176-1.066667-36.906667-1.450667-55.04v-3.882666c0-10.709333-0.384-20.096-0.64-29.098667v-7.68a15.744 15.744 0 0 1 1.877334-9.6 25.173333 25.173333 0 0 1 9.429333-7.722667 68.522667 68.522667 0 0 1 32.426667-8.277333 79.872 79.872 0 0 1 31.104 6.698667 23.765333 23.765333 0 0 1 14.08 15.658666l2.816 7.466667c2.048 5.504 4.266667 11.050667 6.272 16.512 8.192 21.333333 16.128 42.325333 23.381333 63.317333a158.122667 158.122667 0 0 1 2.517333 82.474667 1462.442667 1462.442667 0 0 0-7.594666 43.136l-13.610667 83.584h170.282667c24.661333 0 54.826667 0 87.296 0.298667h1.450666a81.365333 81.365333 0 0 1 25.898667 4.266666c7.850667 2.901333 15.786667 8.106667 20.437333 26.410667 0 0.725333 0.469333 1.450667 0.725334 2.133333a11.477333 11.477333 0 0 1 0.853333 3.413334v13.696l-1.877333 7.808a63.189333 63.189333 0 0 1-9.301334 21.333333l-18.944 27.861333 9.344 32.426667a61.610667 61.610667 0 0 1 2.176 12.8 56.448 56.448 0 0 1-10.922666 33.493333l-18.773334 27.989334 9.472 32.341333a46.208 46.208 0 0 1 1.621334 8.874667 65.92 65.92 0 0 1-11.605334 39.381333l-15.786666 24.405333 5.290666 25.216 0.810667 3.370667a79.872 79.872 0 0 1 1.365333 24.32v1.152a59.733333 59.733333 0 0 1-12.330666 33.28 62.464 62.464 0 0 1-30.549334 20.522667 160.469333 160.469333 0 0 1-49.92 6.272H384.298667z m-184.277334 0v-368.042667h112V759.978667z"  horiz-adv-x="1024" />

    
    <glyph glyph-name="down-arrow-bk-o" unicode="&#59171;" d="M888.618667-64.63999999999999H135.552a72.064 72.064 0 0 0-72.021333 72.021333V760.448a72.064 72.064 0 0 0 72.021333 72.021333h752.981333a72.277333 72.277333 0 0 0 72.106667-72.021333v-753.066667a72.064 72.064 0 0 0-72.021333-72.021333zM135.552 760.448v-753.066667h752.981333V760.448z m376.490667-556.458667a36.053333 36.053333 0 0 0-26.282667 11.392l-221.013333 235.776a36.010667 36.010667 0 1 0 52.48 49.322667l194.816-207.786667 194.688 207.701334a35.626667 35.626667 0 0 0 26.24 11.349333 35.968 35.968 0 0 0 26.282666-60.629333l-220.970666-235.818667a35.968 35.968 0 0 0-26.24-11.306667z"  horiz-adv-x="1024" />

    
    <glyph glyph-name="right-arrow-bk-o" unicode="&#59172;" d="M888.618667-64.63999999999999H135.552a72.064 72.064 0 0 0-72.021333 72.021333V760.448a72.064 72.064 0 0 0 72.021333 72.021333h752.981333a72.277333 72.277333 0 0 0 72.106667-72.021333v-753.066667a72.064 72.064 0 0 0-72.021333-72.021333zM135.552 760.448v-753.066667h752.981333V760.448z m297.642667-633.557333a36.010667 36.010667 0 0 0-35.968 37.12 35.712 35.712 0 0 0 11.306666 25.088l207.701334 194.816-207.786667 194.858666a36.053333 36.053333 0 0 0-1.621333 50.901334 36.053333 36.053333 0 0 0 50.901333 1.578666l235.776-221.184a36.053333 36.053333 0 0 0 11.392-26.282666 36.48 36.48 0 0 0-11.306667-26.282667l-235.818666-221.013333a35.84 35.84 0 0 0-24.576-9.6z"  horiz-adv-x="1024" />

    
    <glyph glyph-name="collection" unicode="&#59173;" d="M956.032 497.493333a86.357333 86.357333 0 0 1-69.077333 58.24l-204.8 31.274667-91.648 194.986667a86.656 86.656 0 0 1-157.013334 0l-91.562666-194.986667-204.8-31.317333a86.698667 86.698667 0 0 1-48.896-146.176L238.933333 255.01866700000005l-35.584-217.984a86.912 86.912 0 0 1 85.674667-101.12 87.338667 87.338667 0 0 1 41.984 10.88l181.034667 100.053333 180.992-100.096a86.613333 86.613333 0 0 1 108.202666 19.797333 86.485333 86.485333 0 0 1 19.498667 70.101334l-35.584 217.984 150.656 154.88a86.741333 86.741333 0 0 1 20.224 87.978666z"  horiz-adv-x="1024" />

    
    <glyph glyph-name="collection-o" unicode="&#59174;" d="M735.018667-64.08533299999999a87.381333 87.381333 0 0 0-42.026667 10.922666l-180.949333 100.010667-181.034667-99.84a86.784 86.784 0 0 0-127.658667 89.898667l35.584 217.984-150.698666 154.624a86.698667 86.698667 0 0 0 48.981333 146.176l204.8 31.317333 91.477333 195.029333a86.698667 86.698667 0 0 0 157.013334 0l91.648-195.029333 204.8-31.36a86.698667 86.698667 0 0 0 48.853333-146.133333l-150.698667-154.538667 35.584-217.984a86.954667 86.954667 0 0 0-85.674666-101.077333z m-222.976 191.104a15.061333 15.061333 0 0 0 7.082666-1.792l208.810667-115.2a14.250667 14.250667 0 0 1 7.125333-1.92 15.104 15.104 0 0 1 11.392 5.333333 14.378667 14.378667 0 0 1 3.2 11.861333l-40.192 246.613334a14.549333 14.549333 0 0 0 4.010667 12.8l170.666667 174.933333a14.72 14.72 0 0 1-8.277334 24.874667l-234.837333 35.925333a14.549333 14.549333 0 0 0-11.093333 8.277333l-104.490667 222.72a14.805333 14.805333 0 0 1-26.794667 0l-104.533333-222.72a14.549333 14.549333 0 0 0-11.093333-8.277333l-235.008-35.882667a14.762667 14.762667 0 0 1-8.277334-24.874666l170.922667-174.933334a14.549333 14.549333 0 0 0 4.010667-12.8l-40.192-246.613333a14.634667 14.634667 0 0 1 3.328-11.946667 14.848 14.848 0 0 1 11.264-5.248 14.464 14.464 0 0 1 7.125333 1.92l208.810667 115.2a15.104 15.104 0 0 0 7.04 1.834667z"  horiz-adv-x="1024" />

    
    <glyph glyph-name="right-arrow-bk" unicode="&#59175;" d="M888.618667-64.63999999999999H135.552a72.064 72.064 0 0 0-72.021333 72.021333V760.448a72.064 72.064 0 0 0 72.021333 72.021333h752.981333a72.277333 72.277333 0 0 0 72.106667-72.021333v-753.066667a72.064 72.064 0 0 0-72.021333-72.021333zM433.066667 641.024a35.968 35.968 0 0 1-35.968-37.162667 35.712 35.712 0 0 1 11.349333-25.130666l207.786667-194.816-207.701334-194.645334a36.010667 36.010667 0 0 1 49.322667-52.48l235.818667 220.970667a36.010667 36.010667 0 0 1 0 52.48l-235.946667 221.013333a35.925333 35.925333 0 0 1-24.661333 9.770667z"  horiz-adv-x="1024" />

    
    <glyph glyph-name="add-bk" unicode="&#59176;" d="M888.618667-127.61599999999999H135.552a72.064 72.064 0 0 0-72.021333 72.021333V697.472a72.064 72.064 0 0 0 72.021333 72.021333h752.981333a72.277333 72.277333 0 0 0 72.106667-72.021333v-753.066667a72.064 72.064 0 0 0-72.021333-72.021333zM135.552 697.472v-753.066667h752.981333V697.472z m377.002667-631.466667a36.053333 36.053333 0 0 0-36.010667 35.968v182.528H292.053333a36.010667 36.010667 0 1 0 0 71.978667h184.490667v183.466667a36.010667 36.010667 0 1 0 71.978667 0v-183.466667h183.466666a36.010667 36.010667 0 0 0 0-71.978667h-183.466666v-182.528a36.010667 36.010667 0 0 0-35.968-35.968z"  horiz-adv-x="1024" />

    
    <glyph glyph-name="remove-bk" unicode="&#59177;" d="M888.618667-64.63999999999999H135.552a72.064 72.064 0 0 0-72.021333 72.021333V760.448a72.064 72.064 0 0 0 72.021333 72.021333h752.981333a72.277333 72.277333 0 0 0 72.106667-72.021333v-753.066667a72.064 72.064 0 0 0-72.021333-72.021333zM290.517333 418.986667a36.010667 36.010667 0 0 1 0-72.021334h441.002667a36.010667 36.010667 0 0 1 0 72.021334z"  horiz-adv-x="1024" />

    
    <glyph glyph-name="remove-bk-o" unicode="&#59178;" d="M888.618667-64.63999999999999H135.552a72.064 72.064 0 0 0-72.021333 72.021333V760.448a72.064 72.064 0 0 0 72.021333 72.021333h752.981333a72.277333 72.277333 0 0 0 72.106667-72.021333v-753.066667a72.064 72.064 0 0 0-72.021333-72.021333zM135.552 760.448v-753.066667h752.981333V760.448z m596.010667-413.482667H290.517333a36.010667 36.010667 0 0 0 0 72.021334h441.002667a36.010667 36.010667 0 0 0 0-72.021334z"  horiz-adv-x="1024" />

    
    <glyph glyph-name="left-arrow-bk-o" unicode="&#59179;" d="M888.618667-64.63999999999999H135.552a72.064 72.064 0 0 0-72.021333 72.021333V760.448a72.064 72.064 0 0 0 72.021333 72.021333h752.981333a72.277333 72.277333 0 0 0 72.106667-72.021333v-753.066667a72.064 72.064 0 0 0-72.021333-72.021333zM135.552 760.448v-753.066667h752.981333V760.448zM591.786667 127.01866700000005a35.882667 35.882667 0 0 0-24.661334 9.770666l-235.776 220.970667a36.010667 36.010667 0 0 0 0 52.48l235.776 220.970667a36.010667 36.010667 0 1 0 49.322667-52.48l-207.786667-194.816 207.658667-194.688a35.968 35.968 0 0 0-24.618667-62.250667z"  horiz-adv-x="1024" />

    
    <glyph glyph-name="close-bk-o" unicode="&#59180;" d="M888.618667-64.63999999999999H135.552a72.064 72.064 0 0 0-72.021333 72.021333V760.448a72.064 72.064 0 0 0 72.021333 72.021333h752.981333a72.277333 72.277333 0 0 0 72.106667-72.021333v-753.066667a72.064 72.064 0 0 0-72.021333-72.021333zM135.552 760.448v-753.066667h752.938667V760.448z m556.288-593.066667a35.456 35.456 0 0 0-25.6 10.581334L512 332.71466699999996l-154.282667-154.410667a35.968 35.968 0 0 0-50.901333 0 36.053333 36.053333 0 0 0 0 50.901333l154.538667 154.922667L306.730667 538.88a36.010667 36.010667 0 0 0 25.6 61.397333 35.541333 35.541333 0 0 0 25.6-10.581333l154.325333-154.709333 154.282667 154.709333a35.968 35.968 0 1 0 50.901333-50.816l-154.709333-154.922667 154.496-154.965333a36.010667 36.010667 0 0 0-25.6-61.397333z"  horiz-adv-x="1024" />

    
    <glyph glyph-name="left-arrow-bk" unicode="&#59181;" d="M888.618667-64.63999999999999H135.552a72.064 72.064 0 0 0-72.021333 72.021333V760.448a72.064 72.064 0 0 0 72.021333 72.021333h752.981333a72.277333 72.277333 0 0 0 72.106667-72.021333v-753.066667a72.064 72.064 0 0 0-72.021333-72.021333zM591.914667 641.024a35.925333 35.925333 0 0 1-24.661334-9.770667l-235.818666-221.184a36.010667 36.010667 0 0 1 0-52.48l235.562666-220.8a36.010667 36.010667 0 1 1 49.28 52.48L408.746667 383.95733299999995l207.786666 194.816a36.053333 36.053333 0 0 1 1.664 50.901334 36.138667 36.138667 0 0 1-26.282666 11.349333z"  horiz-adv-x="1024" />

    
    <glyph glyph-name="close-bk" unicode="&#59185;" d="M888.618667-64.63999999999999H135.552a72.064 72.064 0 0 0-72.021333 72.021333V760.448a72.064 72.064 0 0 0 72.021333 72.021333h752.981333a72.277333 72.277333 0 0 0 72.106667-72.021333v-753.066667a72.064 72.064 0 0 0-72.021333-72.021333z m-376.576 397.610667l154.24-154.752a36.010667 36.010667 0 0 1 61.482666 25.258666 35.84 35.84 0 0 1-10.496 25.6l-154.538666 154.88 154.368 154.922667a35.968 35.968 0 1 1-50.901334 50.816l-154.154666-154.752L357.717333 589.653333a36.010667 36.010667 0 0 1-50.901333 0 36.096 36.096 0 0 1 0-50.901333l154.538667-154.922667-154.624-154.794666a36.053333 36.053333 0 0 1 0-50.901334 35.968 35.968 0 0 1 50.901333 0l154.282667 154.624z"  horiz-adv-x="1024" />

    
    <glyph glyph-name="add" unicode="&#59187;" d="M863.658667 420.010667h-318.634667V730.496a35.968 35.968 0 0 1-36.010667 36.010667 35.968 35.968 0 0 1-36.010666-36.010667v-310.485333h-311.466667a35.968 35.968 0 0 1-36.010667-36.010667 35.968 35.968 0 0 1 36.010667-36.010667h311.466667v-311.466666a35.968 35.968 0 0 1 36.010666-36.010667 35.968 35.968 0 0 1 36.010667 36.010667v311.466666h318.634667a35.968 35.968 0 0 1 36.010666 36.010667 35.968 35.968 0 0 1-36.010666 36.010667z"  horiz-adv-x="1024" />

    
    <glyph glyph-name="Group51" unicode="&#59188;" d="M328.021333 79.274667a31.530667 31.530667 0 0 0-5.290666 0.384 40.106667 40.106667 0 0 0-29.397334 19.797333l-159.317333 278.741333a40.021333 40.021333 0 1 0 69.504 39.68l133.205333-233.216L827.733333 677.205333a40.021333 40.021333 0 0 0 56.704-56.533333L358.229333 92.885333l-1.92-1.92a39.978667 39.978667 0 0 0-28.288-11.690666z"  horiz-adv-x="1024" />

    
    <glyph glyph-name="Group52" unicode="&#59189;" d="M888.618667-64.64H135.552a72.064 72.064 0 0 0-72.021333 72.021333V760.448a72.064 72.064 0 0 0 72.021333 72.021333h752.981333a72.277333 72.277333 0 0 0 72.106667-72.021333v-753.066667a72.064 72.064 0 0 0-72.021333-72.021333zM277.162667 429.568a35.968 35.968 0 0 1-31.232-53.888l108.8-190.506667a36.096 36.096 0 0 1 31.317333-18.218666 35.285333 35.285333 0 0 1 17.834667 4.736 36.138667 36.138667 0 0 1 8.533333 6.698666l0.426667 0.426667 359.381333 360.533333a36.096 36.096 0 0 1 0 50.901334 35.669333 35.669333 0 0 1-50.816 0l-327.466667-328.533334-85.333333 149.333334a36.181333 36.181333 0 0 1-31.445333 18.517333z"  horiz-adv-x="1024" />

    
    <glyph glyph-name="close" unicode="&#59190;" d="M567.722667 384.128l254.805333 254.592a39.296 39.296 0 0 1-55.466667 55.466667L512 439.808 257.109333 694.4a39.296 39.296 0 0 1-55.466666-55.466667l254.677333-254.72-254.805333-254.72a39.296 39.296 0 0 1 55.466666-55.466666L512 328.53333299999997l254.890667-254.72a39.296 39.296 0 0 1 55.466666 55.466667z"  horiz-adv-x="1024" />

    
    <glyph glyph-name="down-arrow" unicode="&#59191;" d="M895.701333 595.8826670000001a44.202667 44.202667 0 0 0-9.6-27.392l-340.906666-423.808a43.733333 43.733333 0 0 0-68.266667 0L138.026667 566.698667a43.690667 43.690667 0 1 0 68.096 54.698666l305.109333-379.733333 306.773333 381.610667a43.648 43.648 0 0 0 77.696-27.392z"  horiz-adv-x="1024" />

    
    <glyph glyph-name="left-arrow" unicode="&#59194;" d="M723.413333 0.2986670000000231a44.202667 44.202667 0 0 0-27.392 9.6l-423.808 340.906666a43.733333 43.733333 0 0 0 0 68.266667l422.016 338.901333a43.733333 43.733333 0 0 0 54.698667-68.266666l-379.605333-304.810667 381.525333-306.901333a43.648 43.648 0 0 0-27.392-77.696z"  horiz-adv-x="1024" />

    
    <glyph glyph-name="reduce" unicode="&#59195;" d="M796.544 347.989333H227.541333A35.968 35.968 0 0 0 191.530667 384a35.968 35.968 0 0 0 36.010666 36.010667h569.002667a35.968 35.968 0 0 0 36.010667-36.010667 35.968 35.968 0 0 0-36.010667-36.010667z"  horiz-adv-x="1024" />

    
    <glyph glyph-name="right-arrow" unicode="&#59196;" d="M300.629333 0.2986670000000231a44.202667 44.202667 0 0 1 27.392 9.6l423.808 340.906666a43.733333 43.733333 0 0 1 0 68.266667L329.813333 757.973333a43.733333 43.733333 0 1 1-54.698666-68.266666l379.733333-305.109334-381.610667-306.602666a43.648 43.648 0 0 1 27.392-77.696z"  horiz-adv-x="1024" />

    
    <glyph glyph-name="up-arrow" unicode="&#59199;" d="M895.701333 172.11733300000003a44.202667 44.202667 0 0 1-9.6 27.392l-340.906666 423.808a43.733333 43.733333 0 0 1-68.266667 0l-338.901333-422.016a43.733333 43.733333 0 0 1 68.266666-54.698666l305.109334 379.733333 306.602666-381.653333a43.648 43.648 0 0 1 77.696 27.392z"  horiz-adv-x="1024" />

    
    <glyph glyph-name="a-left-arrow" unicode="&#59200;" d="M852.778667 427.989333H279.082667l216.32 208.213334a43.989333 43.989333 0 0 1-61.013334 63.402666l-294.613333-283.136a43.989333 43.989333 0 0 1 0-63.402666l296.192-284.714667a43.989333 43.989333 0 0 1 61.013333 63.274667l-216.405333 208.170666h573.226667a44.032 44.032 0 0 1 43.904 41.301334 44.629333 44.629333 0 0 1-44.928 46.890666z"  horiz-adv-x="1024" />

    
    <glyph glyph-name="a-down-arrow" unicode="&#59201;" d="M556.032 724.821333v-573.696l208.256 216.277334a43.989333 43.989333 0 0 0 63.402667-61.013334l-283.093334-294.4a43.989333 43.989333 0 0 0-63.402666 0l-284.885334 296.021334a43.989333 43.989333 0 0 0 63.402667 61.013333l208-216.405333V725.802667a44.032 44.032 0 0 0 41.514667 43.989333 44.672 44.672 0 0 0 46.805333-44.970667z"  horiz-adv-x="1024" />

    
    <glyph glyph-name="a-right-arrow" unicode="&#59202;" d="M171.178667 427.989333h573.696l-216.277334 208.213334a43.989333 43.989333 0 0 0 60.970667 63.402666l294.698667-283.221333a43.989333 43.989333 0 0 0 0-63.402667L587.946667 68.26666699999998a43.989333 43.989333 0 0 0-60.970667 63.36l216.405333 208H170.197333a44.032 44.032 0 0 0-43.989333 41.557333 44.672 44.672 0 0 0 44.970667 46.805333z"  horiz-adv-x="1024" />

    
    <glyph glyph-name="a-up-arrow" unicode="&#59203;" d="M468.010667 43.17866700000002V616.874667l-208.213334-216.277334a43.989333 43.989333 0 0 0-63.402666 61.013334l283.221333 294.698666a43.989333 43.989333 0 0 0 63.402667 0l284.714666-296.32a43.989333 43.989333 0 0 0-63.36-61.013333l-208.042666 216.405333v-573.184a44.032 44.032 0 0 0-41.301334-43.904 44.672 44.672 0 0 0-47.018666 44.885334z"  horiz-adv-x="1024" />

    
    <glyph glyph-name="zoomin" unicode="&#59206;" d="M429.824-63.82933300000002a44.074667 44.074667 0 0 0-43.989333 43.989333v209.493333l-235.690667-235.690666a43.989333 43.989333 0 1 0-62.208 62.208l232.106667 232.021333H108.8a44.074667 44.074667 0 0 0 0 88.106667h321.024a44.074667 44.074667 0 0 0 43.989333-43.989334v-311.978666a44.074667 44.074667 0 0 0-43.989333-44.16z m485.973333 496h-320.981333a44.074667 44.074667 0 0 0-44.032 43.989333V788.181333a44.032 44.032 0 1 0 88.021333 0v-209.408l235.818667 235.690667a43.989333 43.989333 0 0 0 75.093333-31.104 43.690667 43.690667 0 0 0-12.8-31.104l-232.106666-232.106667h211.072a44.032 44.032 0 1 0 0-88.021333z"  horiz-adv-x="1024" />

    
    <glyph glyph-name="roomout" unicode="&#59207;" d="M429.781333-64.81066699999997H108.8a44.074667 44.074667 0 0 0-43.989333 44.032v311.978667a44.032 44.032 0 0 0 88.021333 0v-209.450667l235.776 235.733334a44.032 44.032 0 0 0 62.208-62.293334l-232.106667-232.106666h211.2a43.989333 43.989333 0 0 0 0-87.978667z m486.016 496.085334a44.032 44.032 0 0 0-43.989333 43.989333V684.672l-235.690667-235.690667a43.989333 43.989333 0 0 0-62.208 62.208l232.106667 231.978667h-211.072a44.032 44.032 0 1 0 0 88.021333h320.981333a43.818667 43.818667 0 0 0 43.904-43.904V475.306667a44.074667 44.074667 0 0 0-44.032-44.032z"  horiz-adv-x="1024" />

    
    <glyph glyph-name="contactus" unicode="&#59224;" d="M241.322667 146.688H121.301333a36.010667 36.010667 0 0 0 0 72.021333h120.021334a36.010667 36.010667 0 1 0 0-72.021333z m0 358.016H121.301333a36.010667 36.010667 0 0 0 0 71.978667h120.021334a36.010667 36.010667 0 1 0 0-71.978667zM909.354667 810.666667H221.354667A71.936 71.936 0 0 1 149.333333 738.6453329999999V682.666667a36.010667 36.010667 0 0 1 72.021334 0V738.6453329999999h688v-752H221.354667v54.016V42.66666699999996A36.010667 36.010667 0 0 1 149.333333 42.66666699999996a13.397333 13.397333 0 0 1 0-2.005334v-54.016A71.936 71.936 0 0 1 221.354667-85.33333300000004h688A71.936 71.936 0 0 1 981.333333-13.35466699999995V738.6453329999999A71.936 71.936 0 0 1 909.354667 810.666667zM596.949333 290.64533300000005a164.010667 164.010667 0 1 0 164.010667 164.010667 164.181333 164.181333 0 0 0-164.010667-164.010667z m0 256a91.989333 91.989333 0 1 1 91.989334-91.989333 92.117333 92.117333 0 0 1-91.989334 91.989333z m-355.626666-220.970666H121.301333a36.010667 36.010667 0 0 0 0 71.978666h120.021334a36.010667 36.010667 0 1 0 0-72.021333zM785.536 106.66666699999996a35.84 35.84 0 0 0-35.285333 29.312 156.074667 156.074667 0 0 1-306.602667 0 36.010667 36.010667 0 0 0-35.285333-29.312 37.930667 37.930667 0 0 0-6.741334 0.597333 36.053333 36.053333 0 0 0-28.714666 42.112 228.053333 228.053333 0 0 0 448 0 36.010667 36.010667 0 0 0-28.714667-42.112 37.930667 37.930667 0 0 0-6.698667-0.597333z"  horiz-adv-x="1024" />

    
    <glyph glyph-name="document" unicode="&#59228;" d="M825.001884-127.99872000000005H201.984775a72.533152 72.533152 0 0 0-73.002484 71.978487V823.977567A72.533152 72.533152 0 0 0 201.984775 895.99872h345.129804a73.343817 73.343817 0 0 0 29.013261-6.186651l0.853331-0.469332h0.426665l1.322664-0.639999c1.322663-0.639998 2.60266-1.36533 4.266656-2.303994a77.653139 77.653139 0 0 0 14.677296-11.519971l277.972639-280.660632a71.381155 71.381155 0 0 0 20.394616-50.73054v-599.507834A70.741156 70.741156 0 0 0 825.001884-127.99872000000005zM201.003444 823.977567v-879.9978h622.931776V511.99968h-238.932736A72.533152 72.533152 0 0 0 512 583.978167V823.977567z m383.017709-38.399904v-201.599496h200.746165z m28.970595-729.598176h-319.9992a36.010577 36.010577 0 1 0 0 71.978486h319.9992a36.010577 36.010577 0 1 0 0-72.021153z m127.99968 159.9996h-447.99888a36.010577 36.010577 0 1 0 0 71.978486h447.99888a36.010577 36.010577 0 1 0 0-72.021153z m-191.99952 159.956933h-255.99936a36.010577 36.010577 0 1 0 0 71.978487h255.99936a36.010577 36.010577 0 1 0 0-72.021153z"  horiz-adv-x="1024" />

    
    <glyph glyph-name="jpg" unicode="&#59233;" d="M825.001884-127.99872000000005H201.984775a72.533152 72.533152 0 0 0-73.002484 71.978487V823.977567A72.533152 72.533152 0 0 0 201.984775 895.99872h345.129804a73.642483 73.642483 0 0 0 29.013261-6.186651l0.853331-0.469332h0.426665l1.322664-0.639999c1.322663-0.639998 2.60266-1.36533 4.266656-2.303994a77.653139 77.653139 0 0 0 14.677296-11.519971l277.972639-280.660632a71.381155 71.381155 0 0 0 20.394616-50.73054v-599.507834A70.741156 70.741156 0 0 0 825.001884-127.99872000000005zM201.003444 823.977567v-879.9978h622.931776V511.99968h-238.932736A72.533152 72.533152 0 0 0 512 583.978167V823.977567z m383.017709-38.399904v-201.599496h200.746165z m107.605065-655.785027a91.093106 91.093106 0 0 0-65.066504 24.021273 95.99976 95.99976 0 0 0-26.453268 71.039822 90.111775 90.111775 0 0 0 91.135773 96.981091 81.066464 81.066464 0 0 0 59.178518-24.191939l-23.679941-28.28793a46.933216 46.933216 0 0 1-34.133248 14.421298c-28.629262 0-46.933216-22.527944-46.933216-57.386524 0-38.101238 17.535956-58.197188 50.687874-58.197187a32.511919 32.511919 0 0 1 17.706622 4.693321v30.122591h-29.866592V238.93369600000005h69.119827v-86.613117a90.453107 90.453107 0 0 0-61.738512-22.527943z m-356.393776 0a64.938504 64.938504 0 0 0-61.311847 34.133248l30.421257 22.57061a29.183927 29.183927 0 0 1 24.789272-18.517287c15.530628 0 21.887945 9.087977 21.887945 31.402588v119.466368h44.970554v-123.007693a59.391852 59.391852 0 0 0-60.799848-66.047834z m146.815633 3.199992h-44.074557v186.026201h64.298506c34.133248 0 74.410481-10.495974 74.410481-60.415849 0-46.933216-37.759906-63.573174-73.130484-63.573174h-21.546613v-61.951845z m0 149.972958v-52.991868h19.498618c20.991948 0 32.042587 9.727976 32.042586 28.117263 0 17.450623-9.983975 24.874604-33.36525 24.874605z"  horiz-adv-x="1024" />

    
    <glyph glyph-name="pic" unicode="&#59235;" d="M887.978667-0.7253329999999778H136.021333A72.064 72.064 0 0 0 64 71.253333V696.746667a72.064 72.064 0 0 0 72.021333 72.021333h751.957334A72.064 72.064 0 0 0 960 696.746667v-625.493334a72.064 72.064 0 0 0-72.021333-71.978666zM321.706667 474.069333l-185.6-189.781333v-212.821333h751.786666V240.21333300000003l-141.226666 66.432-160.512-108.458666a35.925333 35.925333 0 0 0-47.189334 5.973333L321.706667 474.069333z m1.237333 88.874667h0.981333a36.394667 36.394667 0 0 0 26.112-12.202667l222.122667-275.2 155.733333 104.96a35.84 35.84 0 0 0 42.026667-1.194666l118.058667-48.682667V696.490667H136.192v-309.504l161.024 165.162666a36.437333 36.437333 0 0 0 25.728 10.837334z m375.04-141.994667a100.992 100.992 0 1 0 101.034667 100.992 101.12 101.12 0 0 0-101.034667-100.949333z m0 129.962667a29.013333 29.013333 0 1 1 29.013333-28.970667 29.013333 29.013333 0 0 1-29.013333 29.226667z"  horiz-adv-x="1024" />

    
    <glyph glyph-name="pdf" unicode="&#59236;" d="M825.001884-127.99872000000005H201.984775a72.533152 72.533152 0 0 0-73.002484 71.978487V823.977567A72.533152 72.533152 0 0 0 201.984775 895.99872h345.129804a73.941148 73.941148 0 0 0 29.013261-6.186651l0.853331-0.469332h0.426665l1.322664-0.639999c1.322663-0.639998 2.60266-1.36533 4.266656-2.303994a77.653139 77.653139 0 0 0 14.677296-11.519971l277.972639-280.660632a71.381155 71.381155 0 0 0 20.394616-50.73054v-599.507834A70.741156 70.741156 0 0 0 825.001884-127.99872000000005zM201.003444 823.977567v-879.9978h622.931776V511.99968h-238.932736A72.533152 72.533152 0 0 0 512 583.978167V823.977567z m383.017709-38.399904v-201.599496h200.746165zM676.991588 128.00063999999998h-45.994552v191.99952h121.983695v-38.015905h-75.989143V238.93369600000005h65.023837v-38.015905h-65.023837V128.00063999999998z m-175.914227 0h-58.111855v191.99952h55.466528a85.845119 85.845119 0 0 0 96.981091-95.018429 97.49309 97.49309 0 0 0-26.282601-73.471816 96.170426 96.170426 0 0 0-68.053163-23.509275z m-11.093306 154.964946v-117.973038h5.589319c35.455911 0 52.693202 19.498618 52.693202 59.733184s-16.255959 58.282521-52.693202 58.28252zM313.003164 128.00063999999998H267.008612v191.99952h66.773167c50.261208 0 76.799808-21.33328 76.799808-62.293178 0-48.426546-39.039902-65.706502-75.605144-65.706502h-21.973279V128.00063999999998z m0 156.03161v-56.021193H332.800448c21.717279 0 33.23725 10.239974 33.23725 29.610592 0 18.261288-10.66664 26.410601-34.517247 26.410601z"  horiz-adv-x="1024" />

    
    <glyph glyph-name="ppt" unicode="&#59237;" d="M824.020553-127.99872000000005H201.003444A72.533152 72.533152 0 0 0 128.00096-56.02023299999996V823.977567A72.533152 72.533152 0 0 0 201.003444 895.99872H546.133248a73.087817 73.087817 0 0 0 29.013261-6.186651l0.853331-0.469332h0.426666l1.322663-0.639999c1.322663-0.639998 2.60266-1.36533 4.266656-2.303994a77.653139 77.653139 0 0 0 14.677297-11.519971L874.66576 594.2181410000001a71.381155 71.381155 0 0 0 20.394616-50.73054v-599.507834A70.741156 70.741156 0 0 0 824.020553-127.99872000000005zM200.022113 823.977567v-879.9978h622.931776V511.99968h-238.932736a72.533152 72.533152 0 0 0-73.002484 71.978487V823.977567z m383.017709-38.399904v-201.599496h200.746165z m-137.002324-729.598176h-77.226473l56.661191 333.993831h112.725052a121.898362 121.898362 0 0 0 96.981091-32.085253 85.33312 85.33312 0 0 0 13.610632-72.533152 137.386323 137.386323 0 0 0-146.388967-110.421057h-37.589239l-18.815953-118.954369z m46.122552 273.065984l-16.341293-92.970435h33.578583a57.599856 57.599856 0 0 1 64.341172 49.279877 35.626578 35.626578 0 0 1-5.33332 30.378591 57.002524 57.002524 0 0 1-44.799888 13.311967h-31.487921z"  horiz-adv-x="1024" />

    
    <glyph glyph-name="othen" unicode="&#59240;" d="M825.001884-127.99872000000005H201.984775a72.533152 72.533152 0 0 0-73.002484 71.978487V823.977567A72.533152 72.533152 0 0 0 201.984775 895.99872h345.129804a73.087817 73.087817 0 0 0 29.013261-6.186651l0.853331-0.469332h0.426665l1.322664-0.639999c1.322663-0.639998 2.60266-1.36533 4.266656-2.303994a77.653139 77.653139 0 0 0 14.677296-11.519971l277.972639-280.660632a71.381155 71.381155 0 0 0 20.394616-50.73054v-599.507834A70.741156 70.741156 0 0 0 825.001884-127.99872000000005zM201.003444 823.977567v-879.9978h622.931776V511.99968h-238.932736A72.533152 72.533152 0 0 0 512 583.978167V823.977567z m383.017709-38.399904v-201.599496h200.746165z m-109.439726-766.590084a43.221225 43.221225 0 1 0 41.42923 43.434558 41.514563 41.514563 0 0 0-41.42923-43.434558z m43.989223 141.226314h-87.551781a134.271664 134.271664 0 0 0 47.829214 114.218381c17.407956 19.455951 32.469252 36.266576 32.469252 54.869196a36.479909 36.479909 0 0 1-41.002564 37.631906 79.061136 79.061136 0 0 1-57.002524-29.311927l-55.210529 50.773207a164.564922 164.564922 0 0 0 125.013021 59.605184c79.231802 0 124.671688-40.703898 124.671688-111.701054a129.023677 129.023677 0 0 0-46.591883-88.831778 110.591724 110.591724 0 0 1-42.66656-87.381115z"  horiz-adv-x="1024" />

    
    <glyph glyph-name="word" unicode="&#59241;" d="M824.020553-127.99872000000005H201.003444A72.533152 72.533152 0 0 0 128.00096-56.02023299999996V823.977567A72.533152 72.533152 0 0 0 201.003444 895.99872H546.133248a72.789151 72.789151 0 0 0 29.013261-6.186651l0.853331-0.469332h0.426666l1.322663-0.639999c1.23733-0.597332 2.559994-1.279997 4.266656-2.303994a77.653139 77.653139 0 0 0 14.677297-11.519971L874.66576 594.2181410000001a71.381155 71.381155 0 0 0 20.394616-50.73054v-599.507834A70.741156 70.741156 0 0 0 824.020553-127.99872000000005zM200.022113 823.977567v-879.9978h622.931776V511.99968h-238.932736a72.533152 72.533152 0 0 0-73.002484 71.978487V823.977567z m383.017709-38.399904v-201.599496h200.746165zM427.093546 73.98477500000001H338.688433l-2.090661 298.281921h73.30115l-4.991988-135.764994-4.607988-94.421097h1.706662c11.519971 32.895918 23.679941 66.005168 34.133248 94.421097l54.527864 135.807661h59.733184l7.423981-135.764994c0.341332-16.725292 0.341332-33.49325 0.383999-51.199872 0-14.122631 0-28.629262 0.213333-43.221226h1.749329c5.290653 18.559954 10.751973 36.735908 16.042627 54.357198 3.96799 13.183967 8.021313 26.7946 11.90397 40.0639l43.093226 135.764994h68.266496l-104.19174-298.281921h-90.069108l-4.010657 130.090341a801.704662 801.704662 0 0 0 0.597332 69.503826h-2.005328c-2.090661-6.229318-4.266656-12.586635-6.357318-18.986619-5.589319-16.725292-11.349305-34.133248-17.450623-50.517207l-48.895877-130.090341z"  horiz-adv-x="1024" />

    
    <glyph glyph-name="browser" unicode="&#59247;" d="M512-127.99829299999999A511.999147 511.999147 0 0 0 149.973937 746.026917a511.999147 511.999147 0 0 0 724.094793-724.094794A508.671152 508.671152 0 0 0 512-127.99829299999999z m198.101003 191.99968a348.15942 348.15942 0 0 0-80.469199-104.106493 437.332604 437.332604 0 0 1 141.098431 68.266552h-1.365331a449.321918 449.321918 0 0 1-59.263901 35.839941z m-456.532572-35.96794a435.75394 435.75394 0 0 1 141.098431-68.266553A349.866084 349.866084 0 0 0 313.98433 64.00138700000002a439.465934 439.465934 0 0 1-59.221235-35.96794z m227.58362 81.919863a440.191266 440.191266 0 0 1-102.997161-19.711967 194.687676 194.687676 0 0 1 102.997161-100.309166z m72.021214-0.810665v-115.541141a206.890322 206.890322 0 0 1 93.013178 96.597172 442.708595 442.708595 0 0 1-93.183845 18.901302z m228.692952 252.884912a734.249443 734.249443 0 0 0-42.325263-232.10628 519.8498 519.8498 0 0 0 86.399856-54.314576 439.167268 439.167268 0 0 1 125.525124 286.420856z m-709.204151 0a439.167268 439.167268 0 0 1 125.69579-286.420856 515.028475 515.028475 0 0 0 86.22919 54.271909 734.590776 734.590776 0 0 0-42.282597 232.10628z m480.511199 0v-180.607699a514.900475 514.900475 0 0 0 121.68513-24.789292 698.281503 698.281503 0 0 1 35.029275 205.396991z m-238.676936 0a699.134835 699.134835 0 0 1 34.986609-205.396991 503.849827 503.849827 0 0 0 131.71178 25.599957v179.797034z m511.316481 330.367449a507.732487 507.732487 0 0 0-86.399856-54.27191 726.953455 726.953455 0 0 0 41.130598-204.116993h168.703719a440.532599 440.532599 0 0 1-123.434461 258.388903z m-151.125081-81.066532a503.209828 503.209828 0 0 0-121.685131-24.789292v-152.618412H708.26634a677.75887 677.75887 0 0 1-33.706611 177.407704z m-325.460791 0a692.009513 692.009513 0 0 1-33.706611-177.407704h165.375725V585.899184a512.809812 512.809812 0 0 0-131.669114 25.599957z m-151.039748 81.066532a440.447266 440.447266 0 0 1-123.391795-258.388903h168.703719a720.1268 720.1268 0 0 0 41.087932 204.116993 518.313803 518.313803 0 0 0-86.399856 54.27191z m282.794195 85.71719A194.00501 194.00501 0 0 1 378.02689 677.80303a435.796607 435.796607 0 0 1 102.997162-19.711967z m72.021213-3.711993v-115.498475a433.620611 433.620611 0 0 1 93.013179 18.901302 206.463656 206.463656 0 0 1-93.013179 96.597173z m76.799872 33.70661a350.591416 350.591416 0 0 0 80.2132-104.106493 454.015243 454.015243 0 0 1 59.178568 36.010607h1.407998a436.564606 436.564606 0 0 1-140.970432 68.095886z m-235.220941 0a438.612602 438.612602 0 0 1-141.098431-68.266553h1.237331a429.99395 429.99395 0 0 1 59.178568-35.83994 348.500752 348.500752 0 0 0 80.511866 104.106493z"  horiz-adv-x="1024" />

    
    <glyph glyph-name="loading" unicode="&#59248;" d="M511.999787-127.99872000000005A511.444694 511.444694 0 0 0 0.000427 384.00064a36.010622 36.010622 0 0 0 72.021243 0 439.93545 439.93545 0 0 1 751.188394-311.082278A439.850117 439.850117 0 0 1 511.999787 823.978757 36.010622 36.010622 0 0 0 511.999787 896a511.99936 511.99936 0 0 0 199.295751-983.67877A507.050033 507.050033 0 0 0 511.999787-127.99872000000005z"  horiz-adv-x="1024" />

    
    <glyph glyph-name="logout" unicode="&#59250;" d="M512.00128 512.00064a35.96794 35.96794 0 0 1 36.010607 36.010607V859.989393a36.010607 36.010607 0 0 1-72.021214 0v-311.978146A35.96794 35.96794 0 0 1 512.00128 512.00064zM512.00128-127.99829299999999A511.444481 511.444481 0 0 0 0.002133 384.000853a507.220488 507.220488 0 0 0 54.997242 231.210282 516.265806 516.265806 0 0 0 147.199755 176.511705 35.96794 35.96794 0 0 0 43.60526-57.215904A444.500592 444.500592 0 0 1 119.468601 582.827189 439.849934 439.849934 0 0 1 512.00128-55.97708 439.465934 439.465934 0 0 1 952.02188 384.000853 434.900608 434.900608 0 0 1 904.533959 582.6138559999999a443.732594 443.732594 0 0 1-126.506456 151.679747 36.010607 36.010607 0 1 0 43.775927 57.215904 518.612469 518.612469 0 0 0 147.199755-176.511705 512.468479 512.468479 0 0 0-257.706237-702.718829A507.049822 507.049822 0 0 0 512.00128-127.99829299999999z"  horiz-adv-x="1024" />

    
    <glyph glyph-name="message" unicode="&#59251;" d="M731.9463 361.04451800000004a54.997242 54.997242 0 1 0 55.039908 54.997242 55.039908 55.039908 0 0 0-55.039908-54.997242z m-219.9463 0a54.997242 54.997242 0 1 0 54.997242 54.997242A55.039908 55.039908 0 0 0 512 361.04451800000004z m-219.988967 0a54.997242 54.997242 0 1 0 54.997242 54.997242 55.039908 55.039908 0 0 0-54.997242-54.997242zM186.02721-128a36.053273 36.053273 0 0 0-35.669274 31.786614l-23.125295 196.607672a462.036563 462.036563 0 0 0-127.189121 316.244806 451.839247 451.839247 0 0 0 40.575932 187.477021 478.420536 478.420536 0 0 0 110.29315 152.405079A513.663144 513.663144 0 0 0 313.514997 858.707689a546.943088 546.943088 0 0 0 396.799339 0 513.663144 513.663144 0 0 0 162.602396-102.186497 477.012538 477.012538 0 0 0 110.293149-152.405079 454.100576 454.100576 0 0 0 0-375.039375A477.86587 477.86587 0 0 0 872.959398 76.79965900000002a513.151145 513.151145 0 0 0-162.602395-102.39983 547.455088 547.455088 0 0 0-358.399403-13.482644L203.81918-123.30667400000004a36.22394 36.22394 0 0 0-17.79197-4.693326z m326.015457 951.97708a468.09522 468.09522 0 0 1-171.989047-32.298613A442.836595 442.836595 0 0 1 200.021853 703.998613a405.033992 405.033992 0 0 1-93.86651-129.493117 378.964702 378.964702 0 0 1-34.133276-157.866404 390.058017 390.058017 0 0 1 115.199808-274.687542 35.754607 35.754607 0 0 0 10.111983-21.119965l18.218636-154.666409 114.901142 65.322558a35.754607 35.754607 0 0 0 17.706637 4.693326 36.394606 36.394606 0 0 0 11.647981-1.919997 475.519207 475.519207 0 0 1 324.266126 7.338654 442.793929 442.793929 0 0 1 139.946433 87.850521 405.887324 405.887324 0 0 1 93.866511 129.493117 380.1167 380.1167 0 0 1 0 315.391474 405.844657 405.844657 0 0 1-93.866511 129.493118 441.172598 441.172598 0 0 1-139.9891 87.893187 468.905885 468.905885 0 0 1-171.989046 32.255946z"  horiz-adv-x="1024" />

    
    <glyph glyph-name="system" unicode="&#59255;" d="M512.042667-72.10666700000002a460.245333 460.245333 0 0 0-72.021334 6.186667l-23.978666 3.797333-24.405334 73.429334a384.512 384.512 0 0 0-57.685333 23.893333l-68.992-34.602667-19.712 14.208a459.776 459.776 0 0 0-55.466667 46.933334 444.970667 444.970667 0 0 0-46.677333 55.466666l-14.208 19.626667 34.389333 68.906667a386.773333 386.773333 0 0 0-23.936 57.728l-73.344 24.234666-3.797333 23.978667A459.904 459.904 0 0 0 56.021333 384a465.322667 465.322667 0 0 0 6.186667 72.533333l3.797333 23.893334 73.301334 24.32a406.826667 406.826667 0 0 0 23.808 57.6l-34.56 69.034666 14.208 19.797334A458.666667 458.666667 0 0 0 244.906667 753.322667l19.712 14.250666 68.992-34.688a407.594667 407.594667 0 0 0 57.728 23.808l24.362666 73.301334 24.021334 3.797333a452.778667 452.778667 0 0 0 72.32 6.314667 452.736 452.736 0 0 0 72.192-6.186667l23.808-3.712 24.362666-73.088a389.632 389.632 0 0 0 57.728-23.936l69.12 34.602667 19.712-14.208a467.285333 467.285333 0 0 0 102.4-102.058667l14.165334-19.797333-34.730667-68.949334a387.370667 387.370667 0 0 0 23.936-57.685333l73.301333-24.490667 3.797334-24.021333a407.978667 407.978667 0 0 0 6.058666-72.192 460.458667 460.458667 0 0 0-6.186666-72.234667l-3.797334-24.021333-73.301333-24.490667a387.626667 387.626667 0 0 0-23.893333-57.685333l34.602666-69.12-14.208-19.797333a457.685333 457.685333 0 0 0-46.677333-55.466667 427.733333 427.733333 0 0 0-55.466667-46.933333l-19.712-14.208-69.12 34.602666a418.432 418.432 0 0 0-57.6-23.765333l-24.362666-73.429333-23.978667-3.797334a463.146667 463.146667 0 0 0-72.149333-6.144z m-177.152 188.117334l29.184-15.189334a304.810667 304.810667 0 0 1 52.736-21.674666l31.488-9.685334 10.282666-31.317333 11.818667-35.413333a347.434667 347.434667 0 0 1 41.898667-2.602667 334.336 334.336 0 0 1 41.898666 2.602667l11.776 35.413333 10.197334 30.976 31.317333 9.770667a333.696 333.696 0 0 1 53.418667 22.101333l29.013333 15.104 62.464-31.274667a334.976 334.976 0 0 1 31.232 27.562667v0.213333a354.133333 354.133333 0 0 1 27.818667 31.36l-31.402667 62.72 15.402667 29.098667a298.666667 298.666667 0 0 1 21.717333 52.693333l9.685333 31.530667 31.274667 10.581333 35.413333 11.776a357.205333 357.205333 0 0 1 2.602667 41.898667v0.512a292.181333 292.181333 0 0 1-2.474667 41.301333l-35.413333 11.776-31.104 10.410667-9.770667 31.317333a330.325333 330.325333 0 0 1-21.930666 53.333334l-14.976 28.928 31.189333 62.464a393.258667 393.258667 0 0 1-59.477333 59.349333l-62.549334-31.274667-29.013333 15.146667a337.066667 337.066667 0 0 1-53.205333 21.930667l-31.274667 9.856-22.186667 66.304a353.322667 353.322667 0 0 1-41.770666 2.602666 372.010667 372.010667 0 0 1-41.813334-2.602666l-11.776-35.413334-10.453333-30.890666-31.317333-9.770667a320.64 320.64 0 0 1-53.205334-22.016l-29.056-15.274667-62.634666 31.061334a386.858667 386.858667 0 0 1-59.178667-59.221334l16.597333-33.28 14.421334-29.312-15.189334-29.013333a328.106667 328.106667 0 0 1-21.888-53.205333l-9.728-31.402667-66.218666-22.058667a362.24 362.24 0 0 1-2.56-41.898666 339.882667 339.882667 0 0 1 2.56-41.898667l66.645333-22.101333 9.685333-31.488a309.077333 309.077333 0 0 1 21.930667-52.992l15.189333-29.013334-31.189333-62.464a352.170667 352.170667 0 0 1 27.818667-31.402666 369.152 369.152 0 0 1 31.402666-27.818667l33.28 16.597333 29.44 14.72z m177.322666 93.866666a174.293333 174.293333 0 1 0 174.293334 174.293334 174.506667 174.506667 0 0 0-174.293334-174.464z m0 276.608a102.4 102.4 0 1 1 72.32-29.866666 101.589333 101.589333 0 0 1-72.32 29.653333z"  horiz-adv-x="1024" />

    
    <glyph glyph-name="compass" unicode="&#59263;" d="M512-127.99829299999999A511.999147 511.999147 0 0 0 149.973937 746.026917a511.999147 511.999147 0 0 0 724.094793-724.094794A508.671152 508.671152 0 0 0 512-127.99829299999999z m0 951.97708A440.0206 440.0206 0 1 1 952.0206 384.000853 440.489933 440.489933 0 0 1 512 823.978787zM285.867044 157.86789699999997l98.517169 216.660972a127.999787 127.999787 0 0 0 37.205271 99.797167A126.591789 126.591789 0 0 0 512 512.00064c3.157328 0 6.314656 0 9.386651-0.341333L738.132956 610.13381l-98.559835-216.746306a127.999787 127.999787 0 0 0-37.205272-99.7545A126.549122 126.549122 0 0 0 512 256.00106700000003c-3.157328 0-6.314656 0-9.386651 0.341332L285.867044 157.86789699999997z m226.132956 282.154196a56.063907 56.063907 0 1 1 39.637267-16.426639 55.466574 55.466574 0 0 1-39.637267 16.426639z"  horiz-adv-x="1024" />

    
    <glyph glyph-name="gift" unicode="&#59265;" d="M824.021333-64H200.021333A72.064 72.064 0 0 0 128 8.021333000000027V320h7.509333A72.234667 72.234667 0 0 0 64 392.021333V503.978667A72.064 72.064 0 0 0 136.021333 576H384a128 128 0 1 0 128 128 128 128 0 1 0 128-128h247.978667A72.064 72.064 0 0 0 960 503.978667v-111.957334a72.064 72.064 0 0 0-72.021333-72.021333H896v-311.978667a72.064 72.064 0 0 0-71.978667-72.021333z m-276.010666 384v-311.978667h276.010666V320z m-347.989334 0v-311.978667h275.968V320z m347.989334 183.978667v-111.957334h340.010666V503.978667z m-411.989334 0v-111.957334h339.968V503.978667z m503.978667 256A56.064 56.064 0 0 1 584.021333 704v-56.021333H640a56.021333 56.021333 0 0 1 0 112z m-256 0a56.021333 56.021333 0 0 1 0-112h56.021333V704A56.064 56.064 0 0 1 384 759.978667z"  horiz-adv-x="1024" />

    
    <glyph glyph-name="rockets" unicode="&#59272;" d="M500.181333-63.40266699999995a39.381333 39.381333 0 0 0-9.856 1.365334 35.797333 35.797333 0 0 0-23.722666 21.717333l-1.536 3.541333v0.213334l-0.554667 1.493333-1.92 4.992-0.597333 1.664-3.712 9.813333-0.853334 2.218667c-12.245333 32.298667-29.013333 76.501333-45.141333 109.44L219.733333 285.866667c-31.146667 15.530667-69.973333 30.336-104.192 43.349333h-0.384l-0.768 0.298667-5.546666 2.090666-6.826667 2.602667-4.266667 1.578667-0.896 0.597333-9.728 3.712a35.925333 35.925333 0 0 0-21.717333 23.68 36.48 36.48 0 0 0 5.930667 31.616 541.866667 541.866667 0 0 0 131.712 106.666667 644.266667 644.266667 0 0 0 143.445333 69.504c6.144 12.117333 12.501333 24.277333 18.901333 36.010666a471.808 471.808 0 0 0 64.597334 97.834667 292.138667 292.138667 0 0 0 78.506666 52.309333 669.866667 669.866667 0 0 0 112 41.045334 932.266667 932.266667 0 0 0 234.88 34.133333 310.229333 310.229333 0 0 0 71.637334-6.485333l21.333333-5.205334 5.12-21.333333a317.866667 317.866667 0 0 0 6.528-74.581333 882.773333 882.773333 0 0 0-15.701333-152.277334c-22.826667-122.069333-64.469333-222.976-111.402667-269.909333a460.8 460.8 0 0 0-98.133333-64.768c-10.069333-5.504-21.76-11.605333-36.650667-19.2a652.074667 652.074667 0 0 0-69.717333-143.488 541.866667 541.866667 0 0 0-106.666667-131.712 35.584 35.584 0 0 0-21.546667-7.338667z m100.906667 235.989334l-4.010667-1.792-2.901333-1.322667-8.533333-3.925333c-33.536-15.061333-69.205333-30.506667-106.112-45.866667 13.397333-28.16 26.026667-60.074667 34.133333-81.621333a777.258667 777.258667 0 0 1 53.802667 75.818666c12.8 20.693333 24.192 40.448 33.621333 58.709334z m254.421333 588.416a852.650667 852.650667 0 0 1-215.637333-31.701334 593.706667 593.706667 0 0 1-99.882667-36.394666 225.749333 225.749333 0 0 1-58.922666-38.4 393.472 393.472 0 0 1-52.181334-81.066667c-20.906667-38.4-44.629333-87.210667-70.442666-144.512a4320.426667 4320.426667 0 0 1-53.973334-125.781333l125.653334-126.037334c46.293333 19.2 87.466667 36.906667 125.781333 54.101334a2303.189333 2303.189333 0 0 1 144.597333 70.485333 380.458667 380.458667 0 0 1 81.066667 52.181333 273.066667 273.066667 0 0 1 50.432 86.528 778.496 778.496 0 0 1 41.216 145.706667 810.666667 810.666667 0 0 1 14.464 139.52c0 11.946667-0.256 23.381333-1.066667 34.133333a344.149333 344.149333 0 0 1-31.104 1.237334zM300.202667 474.496c-18.730667-9.472-38.4-20.778667-58.922667-33.578667a752.128 752.128 0 0 1-75.818667-53.674666 1146.88 1146.88 0 0 0 81.706667-34.389334 4793.6 4793.6 0 0 0 45.568 105.472c2.176 4.864 4.650667 10.325333 7.466667 16.170667z m-218.88-537.6a17.365333 17.365333 0 0 0-17.322667 17.493333 17.066667 17.066667 0 0 0 0.810667 5.034667l37.589333 124.16a86.485333 86.485333 0 0 0 169.301333-25.130667 87.296 87.296 0 0 0-61.397333-83.157333l-123.989333-37.717333a16.512 16.512 0 0 0-4.992-0.682667zM594.730667 467.712a64 64 0 1 1-16.554667 61.824 64 64 0 0 1 16.554667-61.824z"  horiz-adv-x="1024" />

    
    <glyph glyph-name="Group138" unicode="&#59277;" d="M887.978667-64H736a36.010667 36.010667 0 1 0 0 71.978667h151.978667V160a36.010667 36.010667 0 1 0 72.021333 0v-151.978667a72.064 72.064 0 0 0-72.021333-72.021333z m-599.978667 0H136.021333A72.064 72.064 0 0 0 64 8.021333V160a36.010667 36.010667 0 1 0 71.978667 0v-151.978667H288a36.010667 36.010667 0 1 0 0-72.021333z m408.021333 192H328.021333A72.064 72.064 0 0 0 256 200.021333V567.978667A72.064 72.064 0 0 0 328.021333 640h368A72.064 72.064 0 0 0 768 567.978667v-368A72.064 72.064 0 0 0 695.978667 128zM328.021333 567.978667v-368h368V567.978667z m596.010667 4.010666a36.053333 36.053333 0 0 0-36.010667 36.010667V759.978667H736a36.010667 36.010667 0 1 0 0 72.021333h151.978667A72.064 72.064 0 0 0 960 759.978667V608a36.053333 36.053333 0 0 0-36.010667-36.010667z m-824.021333 0A36.053333 36.053333 0 0 0 64 608V759.978667A72.064 72.064 0 0 0 136.021333 832H288a36.010667 36.010667 0 1 0 0-71.978667H136.021333V608a36.053333 36.053333 0 0 0-36.053333-36.010667z"  horiz-adv-x="1024" />

    
    <glyph glyph-name="notice" unicode="&#59279;" d="M512-128a72.064 72.064 0 0 0-71.978667 71.978667v48h-276.053333a36.010667 36.010667 0 0 0 0 71.978666H192V512a319.488 319.488 0 0 0 283.989333 317.994667v29.866666a36.010667 36.010667 0 0 0 72.021334 0v-29.866666A319.530667 319.530667 0 0 0 832 512v-448h27.989333a36.010667 36.010667 0 1 0 0-72.021333h-275.968v-48A72.064 72.064 0 0 0 512-128z m0 887.978667A248.277333 248.277333 0 0 1 264.021333 512v-448h495.957334V512A248.277333 248.277333 0 0 1 512 759.978667z"  horiz-adv-x="1024" />

    
    <glyph glyph-name="search" unicode="&#59292;" d="M945.408-85.33333300000004a35.925333 35.925333 0 0 0-25.6 10.496l-205.653333 205.696a384 384 0 1 0 50.901333 50.901333l205.696-205.610667a35.925333 35.925333 0 0 0-25.6-61.482666zM469.333333 738.6453329999999a312.064 312.064 0 0 1-121.386666-599.466666 312.064 312.064 0 0 1 242.773333 575.018666A309.205333 309.205333 0 0 1 469.333333 738.6453329999999z"  horiz-adv-x="1024" />

    
    <glyph glyph-name="google" unicode="&#59313;" d="M516.94901-128l209.052991 362.642944a262.126853 262.126853 0 0 1-31.827252 336.191341h292.972835A511.966509 511.966509 0 0 0 516.94901-128z m-82.085297 5.50364A512.563803 512.563803 0 0 0 65.607868 635.0007539999999L274.362212 273.040432a260.846936 260.846936 0 0 1 306.710603-141.430748l-146.209102-254.06338z m76.240346 320.405707A186.057162 186.057162 0 1 0 696.734582 383.966509a186.057162 186.057162 0 0 0-185.630523-186.014498z m-253.338095 251.460883L111.428871 703.092299a510.558601 510.558601 0 0 0 656.213072 123.72524 514.441014 514.441014 0 0 0 183.156019-181.876102H533.758577a248.090437 248.090437 0 0 1-22.654518 0.981269h-0.255984a261.401567 261.401567 0 0 1-253.039447-196.253829z"  horiz-adv-x="1024" />

    
    <glyph glyph-name="delete" unicode="&#59315;" d="M833.152-61.14133300000003H200.874667a70.485333 70.485333 0 0 0-70.442667 70.442666V631.637333h-31.530667a35.754667 35.754667 0 0 0 0 71.381334h185.301334V760.576a70.485333 70.485333 0 0 0 70.442666 70.442667h314.709334a70.485333 70.485333 0 0 0 70.4-70.442667v-57.557333h184.405333a37.802667 37.802667 0 0 0 26.282667-10.581334 35.2 35.2 0 0 0 10.453333-25.173333 36.736 36.736 0 0 0-36.736-35.754667h-20.48v-622.208a70.485333 70.485333 0 0 0-70.528-70.442666zM200.874667 631.637333V9.386666999999989h632.149333V631.637333H200.874667z m153.6 128.768v-57.856h314.538666V760.405333z m349.866666-654.165333a36.010667 36.010667 0 0 0-35.968 35.968v333.653333a35.968 35.968 0 0 0 71.936 0v-333.610666a36.010667 36.010667 0 0 0-36.010666-36.010667z m-192.768 0a36.010667 36.010667 0 0 0-35.968 35.968v333.653333a35.968 35.968 0 0 0 71.936 0v-333.610666a36.010667 36.010667 0 0 0-36.010666-36.010667z m-194.773333 0a36.010667 36.010667 0 0 0-35.968 35.968v333.653333a35.968 35.968 0 0 0 71.936 0v-333.610666a36.010667 36.010667 0 0 0-35.968-36.010667z"  horiz-adv-x="1024" />

    
    <glyph glyph-name="share02" unicode="&#59319;" d="M752.768-16.639999999999986H185.770667a90.112 90.112 0 0 0-90.069334 89.813333V660.309333a90.197333 90.197333 0 0 0 90.069334 90.069334h254.549333a35.797333 35.797333 0 0 0 0-71.594667H185.728a18.645333 18.645333 0 0 1-18.602667-18.602667V72.96000000000004a18.645333 18.645333 0 0 1 18.602667-18.602667h567.04a18.645333 18.645333 0 0 1 18.645333 18.602667v204.032a35.84 35.84 0 0 0 71.68 0v-203.733333a90.197333 90.197333 0 0 0-90.325333-89.898667z m-338.56 362.666667a28.032 28.032 0 0 0-5.12 0.426666 35.84 35.84 0 0 0-30.293333 40.490667 362.666667 362.666667 0 0 0 54.528 136.064 300.885333 300.885333 0 0 0 234.112 135.765333V749.696a35.712 35.712 0 0 0 35.797333 35.797333 35.242667 35.242667 0 0 0 24.576-9.898666l189.994667-180.906667a36.181333 36.181333 0 0 0-1.706667-53.504l-190.122667-158.293333a35.797333 35.797333 0 0 0-22.826666-8.234667 34.346667 34.346667 0 0 0-15.104 3.413333 35.882667 35.882667 0 0 0-20.693334 32.384V520.96a35.84 35.84 0 0 0 71.637334 0v-34.133333l100.565333 83.797333-100.437333 95.658667v-42.112a35.84 35.84 0 0 0-35.797334-35.797334H699.690667a233.728 233.728 0 0 1-205.568-103.381333 301.141333 301.141333 0 0 1-44.544-108.501333 36.053333 36.053333 0 0 0-35.370667-30.464z"  horiz-adv-x="1024" />

    
    <glyph glyph-name="github" unicode="&#59320;" d="M0 371.28533300000004a511.744 511.744 0 0 1 342.656-483.029333c26.88-6.784 22.784 12.373333 22.784 25.386667v88.576c-155.136-18.176-161.365333 84.522667-171.818667 101.589333-21.077333 36.010667-70.741333 45.013333-55.936 62.08 35.370667 18.176 71.338667-4.608 112.981334-66.261333a107.989333 107.989333 0 0 1 118.869333-29.866667 144.597333 144.597333 0 0 0 39.68 69.546667c-160.64 28.8-227.669333 126.848-227.669333 243.584A225.237333 225.237333 0 0 0 236.8 533.845333a199.850667 199.850667 0 0 0 5.589333 137.173334 233.685333 233.685333 0 0 0 140.8-51.754667A496.042667 496.042667 0 0 0 512 634.837333a496.384 496.384 0 0 0 129.664-15.872 229.418667 229.418667 0 0 0 138.666667 50.133334 201.344 201.344 0 0 0 6.314666-134.869334 224.981333 224.981333 0 0 0 55.936-151.253333c0-116.864-67.413333-215.082667-228.565333-243.456a145.877333 145.877333 0 0 0 43.562667-104.106667v-128.682666c0.896-10.282667 0-20.48 17.066666-20.48A511.573333 511.573333 0 1 1 0 371.28533300000004z"  horiz-adv-x="1024" />

    
    <glyph glyph-name="ie" unicode="&#59322;" d="M223.402667-18.303999999999974a134.485333 134.485333 0 0 0-99.072 36.394667 125.696 125.696 0 0 0-28.245334 88.277333 429.653333 429.653333 0 0 0 23.893334 134.912 765.184 765.184 0 0 0 74.922666 159.189333 873.472 873.472 0 0 0 126.421334 159.914667c2.986667 3.114667 13.525333 13.653333 24.704 24.789333a524.330667 524.330667 0 0 1-149.717334-135.893333l-17.493333-22.4 6.869333 27.605333a377.344 377.344 0 0 0 239.530667 263.338667 374.357333 374.357333 0 0 0 125.696 21.333333c9.386667 0 18.261333-0.298667 27.221333-0.938666a505.728 505.728 0 0 0 193.322667 47.872 129.024 129.024 0 0 0 91.946667-28.288 132.949333 132.949333 0 0 0 36.522666-90.410667 307.925333 307.925333 0 0 0-21.888-118.314667 377.216 377.216 0 0 0 49.194667-186.069333 383.786667 383.786667 0 0 0-2.218667-42.666667l-0.597333-5.418666H401.109333a158.890667 158.890667 0 0 1 18.389334-68.992 157.098667 157.098667 0 0 1 276.224 0l1.706666 3.072h212.309334l-2.688-7.893334a376.405333 376.405333 0 0 0-356.138667-254.592 370.56 370.56 0 0 0-167.893333 39.296 375.168 375.168 0 0 0-159.616-44.117333z m-22.186667 241.621333c-41.301333-85.632-47.274667-152.576-16.298667-183.466666a77.397333 77.397333 0 0 1 56.917334-19.626667c3.285333 0 6.698667 0 10.197333 0.341333a296.533333 296.533333 0 0 1 95.018667 25.6 380.202667 380.202667 0 0 0-145.834667 177.152z m349.866667 335.872a149.333333 149.333333 0 0 1-149.290667-135.082666h298.197333a149.333333 149.333333 0 0 1-149.077333 135.082666z m244.736 168.32a260.266667 260.266667 0 0 1-91.989334-20.906666 377.685333 377.685333 0 0 0 155.093334-128c20.138667 60.074667 18.133333 104.789333-5.930667 129.194666a77.653333 77.653333 0 0 1-57.173333 19.712z"  horiz-adv-x="1024" />

    
    <glyph glyph-name="lock" unicode="&#59323;" d="M784.298667-64.51199999999994H239.402667a68.266667 68.266667 0 0 0-66.304 69.589333V475.306667a368.170667 368.170667 0 0 0 26.709333 138.581333 358.4 358.4 0 0 0 72.533333 113.408 335.573333 335.573333 0 0 0 107.776 76.8 321.877333 321.877333 0 0 0 263.68 0 337.066667 337.066667 0 0 0 107.605334-76.8 358.826667 358.826667 0 0 0 72.533333-113.408 365.653333 365.653333 0 0 0 26.496-138.581333v-470.229334a70.186667 70.186667 0 0 0-20.352-50.346666 64 64 0 0 0-45.781333-19.242667zM241.365333 377.55733299999997v-372.394666a4.266667 4.266667 0 0 1 0-1.365334H782.506667a5.504 5.504 0 0 1 0 1.365334v372.394666z m165.333334 363.605334a269.098667 269.098667 0 0 1-84.608-60.757334 290.645333 290.645333 0 0 1-58.922667-91.946666 302.933333 302.933333 0 0 1-21.802667-113.066667v-29.866667h541.013334V475.306667a299.477333 299.477333 0 0 1-21.802667 113.152 292.010667 292.010667 0 0 1-58.88 91.989333 274.645333 274.645333 0 0 1-86.016 61.397333 254.08 254.08 0 0 1-103.765333 22.272 248.32 248.32 0 0 1-103.722667-22.4l-1.28-0.512z m105.386666-638.378667a31.744 31.744 0 0 0-31.701333 31.701333v89.6a59.733333 59.733333 0 0 0-27.093333 49.365334 58.709333 58.709333 0 1 0 90.496-49.237334v-89.6a31.744 31.744 0 0 0-31.701334-31.829333z"  horiz-adv-x="1024" />

    
    <glyph glyph-name="qrcode" unicode="&#59326;" d="M869.973333-31.189333000000033h-153.6a57.258667 57.258667 0 0 0-57.173333 57.216v153.6a57.258667 57.258667 0 0 0 57.173333 57.173333h153.6a57.258667 57.258667 0 0 0 57.216-57.173333v-153.6a57.301333 57.301333 0 0 0-57.216-57.216z m-147.626666 204.8v-141.610667h141.653333v141.610667z m-153.6-204.8h-63.146667v51.2h-102.4V83.20000000000005h51.2v39.210667h-51.2V288h63.189333v-102.4h153.6v-63.189333h-102.4v-90.410667h39.210667v51.2h63.189333v-63.146667h-51.2v-51.2z m-261.973334 0h-153.6a57.301333 57.301333 0 0 0-57.173333 57.216v153.6a57.258667 57.258667 0 0 0 57.216 57.173333h153.6a57.258667 57.258667 0 0 0 57.173333-57.173333v-153.6a57.258667 57.258667 0 0 0-57.173333-57.216z m-147.626666 204.8v-141.610667h141.653333v141.610667z m665.6-102.4h-63.146667V134.39999999999998h63.189333v-63.146667z m-563.2 0H198.4V134.39999999999998h63.232v-63.146667z m409.6 153.6h-114.346667v102.4h-51.2V390.4h153.6v39.210667h-192.810667v-51.2h-102.4v-102.4H300.8v102.4h-51.2v51.2H159.274667v-51.2H96V441.6h51.2v51.2h114.389333v-51.2h39.210667v51.2h63.189333v-51.2h90.410667v51.2h51.2V583.2106670000001h-51.2V697.6h51.2v39.210667h-102.4V800h165.589333v-51.2h51.2v-63.189333h-51.2v-51.2h-51.2v-39.210667h51.2v-102.4h153.6v-102.4h90.410667v102.4h63.189333v-102.4h51.2v-63.189333H864v51.2h-39.210667v-51.2h-204.8v-39.210667h51.2v-63.146667z m-512 51.2H96V339.20000000000005h63.146667v-63.104z m710.698666 256h-153.6a57.258667 57.258667 0 0 0-57.173333 57.173333v153.6A57.258667 57.258667 0 0 0 716.373333 800h153.6a57.301333 57.301333 0 0 0 57.216-57.216v-153.6a57.258667 57.258667 0 0 0-57.216-57.173333z m-147.626666 204.8V595.2h141.781333V736.810667z m-415.573334-204.8h-153.6a57.258667 57.258667 0 0 0-57.045333 57.173333v153.6A57.301333 57.301333 0 0 0 153.216 800h153.6a57.258667 57.258667 0 0 0 57.173333-57.216v-153.6a57.258667 57.258667 0 0 0-57.173333-57.173333z m-147.626666 204.8V595.2H300.8V736.810667z m665.6-102.4H761.6V697.6h63.189333v-63.146667z m-563.2 0H198.4V697.6h63.232v-63.146667z"  horiz-adv-x="1024" />

    
    <glyph glyph-name="contact" unicode="&#59328;" d="M505.216-42.41066699999999H221.952a91.946667 91.946667 0 0 0-93.141333 90.538667v164.138667a223.232 223.232 0 0 0 68.949333 161.066666 231.168 231.168 0 0 0 69.290667 46.933334 206.933333 206.933333 0 0 0-74.24 64.597333 195.712 195.712 0 0 0-35.669334 112.512 203.690667 203.690667 0 0 0 206.336 200.405333 207.146667 207.146667 0 0 0 151.125334-64 200.917333 200.917333 0 0 0 69.333333 82.176 209.066667 209.066667 0 0 0 119.296 36.864 203.690667 203.690667 0 0 0 206.378667-200.533333 195.84 195.84 0 0 0-35.584-112.597333 204.8 204.8 0 0 0-74.325334-64.682667 234.666667 234.666667 0 0 0 69.290667-46.933333 223.914667 223.914667 0 0 0 69.290667-160.981334v-164.224a91.946667 91.946667 0 0 0-93.141334-90.496h-254.250666a93.226667 93.226667 0 0 0-85.674667-54.784z m-141.738667 411.861334a162.986667 162.986667 0 0 1-114.218666-46.165334 153.6 153.6 0 0 1-47.530667-110.933333v-164.138667a19.882667 19.882667 0 0 1 20.138667-19.541333h283.136a20.096 20.096 0 0 1 14.122666 5.802667 18.688 18.688 0 0 1 5.973334 13.738666v164.053334a153.6 153.6 0 0 1-45.866667 109.269333l-0.298667 0.384a11.093333 11.093333 0 0 1-0.981333 0.981333l-0.384 0.384a162.986667 162.986667 0 0 1-114.090667 46.165334z m339.84 55.04a162.773333 162.773333 0 0 1-114.218666-46.293334 156.16 156.16 0 0 1-29.866667-40.064 221.098667 221.098667 0 0 0 38.912-125.781333v-128.768h246.698667a19.882667 19.882667 0 0 1 20.138666 19.541333v164.266667a153.6 153.6 0 0 1-47.488 110.933333 163.029333 163.029333 0 0 1-114.261333 46.122667z m-151.296 91.264a204.8 204.8 0 0 0-92.16-95.786667 233.386667 233.386667 0 0 0 47.189334-27.818667 240.853333 240.853333 0 0 0 30.378666 36.053334 235.008 235.008 0 0 0 69.290667 46.933333 205.226667 205.226667 0 0 0-54.698667 40.618667z m-188.544 211.2a134.144 134.144 0 0 1-94.293333-37.973334 126.976 126.976 0 0 1 0-183.168 136.234667 136.234667 0 0 1 188.757333 0 126.848 126.848 0 0 1 0 183.168 134.144 134.144 0 0 1-94.464 37.973334z m339.84 55.04a134.101333 134.101333 0 0 1-94.250666-37.973334 126.890667 126.890667 0 0 1 0-183.210666 136.021333 136.021333 0 0 1 188.586666 0 126.890667 126.890667 0 0 1 0 183.210666 134.144 134.144 0 0 1-94.421333 37.930667z"  horiz-adv-x="1024" />

    
    <glyph glyph-name="lock-open" unicode="&#59329;" d="M784.213333-64.51199999999994H239.317333a68.266667 68.266667 0 0 0-66.304 69.589333V475.306667a368.170667 368.170667 0 0 0 26.709334 138.581333 358.101333 358.101333 0 0 0 72.533333 113.408 335.573333 335.573333 0 0 0 107.776 76.8 321.877333 321.877333 0 0 0 263.68 0 337.365333 337.365333 0 0 0 107.605333-76.8 358.4 358.4 0 0 0 72.533334-113.408v-0.298667a25.130667 25.130667 0 0 0-2.517334-23.850666 25.898667 25.898667 0 0 0-21.333333-11.349334h-13.653333a35.669333 35.669333 0 0 0-31.701334 19.114667 469.333333 469.333333 0 0 1-53.12 83.114667 274.688 274.688 0 0 1-85.973333 61.397333 254.336 254.336 0 0 1-103.637333 22.101333 248.32 248.32 0 0 1-103.722667-22.4l-1.322667-0.512A269.312 269.312 0 0 1 322.133333 680.490667a290.56 290.56 0 0 1-58.922666-91.904 301.568 301.568 0 0 1-21.930667-113.109334v-29.866666h545.109333a64 64 0 0 0 64-64v-376.576a70.186667 70.186667 0 0 0-20.352-50.346667 64 64 0 0 0-45.824-19.2zM241.28 377.55733299999997v-372.394666a6.144 6.144 0 0 1 0-1.365334H782.506667a4.48 4.48 0 0 1 0.213333 1.365334v372.394666z m270.848-274.773333a31.744 31.744 0 0 0-31.701333 31.701333v89.6a59.733333 59.733333 0 0 0-27.136 49.365334 58.709333 58.709333 0 1 0 90.496-49.28v-89.6a31.744 31.744 0 0 0-31.658667-31.786667z"  horiz-adv-x="1024" />

    
    <glyph glyph-name="share01" unicode="&#59335;" d="M812.117333-63.18933300000003a148.181333 148.181333 0 0 0-148.010666 148.010666c0 4.266667 0 7.168 0.256 10.026667l-243.2 172.373333a198.016 198.016 0 1 0-161.194667 312.96 196.266667 196.266667 0 0 0 143.829333-62.165333l264.064 132.992a150.058667 150.058667 0 0 0-3.669333 32.896 148.138667 148.138667 0 1 0 36.394667-97.109333l-257.493334-129.578667a197.376 197.376 0 0 0 8.917334-123.477333l236.330666-167.594667a148.053333 148.053333 0 1 0 123.733334-229.290667z m0 224.085333a75.989333 75.989333 0 1 1 75.989334-75.989333 76.074667 76.074667 0 0 1-76.117334 75.989333zM259.968 507.989333a125.994667 125.994667 0 1 1 125.994667-125.994666 126.122667 126.122667 0 0 1-125.994667 125.994666z m552.021333 251.733334a75.989333 75.989333 0 1 1 75.989334-75.989334 76.074667 76.074667 0 0 1-75.989334 76.16z"  horiz-adv-x="1024" />

    
    <glyph glyph-name="info-cirlce" unicode="&#59340;" d="M512-127.998293A511.999147 511.999147 0 0 0 149.973937 746.026917a511.999147 511.999147 0 0 0 724.094793-724.094794A508.671152 508.671152 0 0 0 512-127.998293z m-124.20246 318.378136a36.010607 36.010607 0 1 1 0-72.021214h242.38893a36.010607 36.010607 0 1 1 0 71.978547h-85.333191V540.501926a36.053273 36.053273 0 0 1-36.010607 36.010606H413.013498a36.010607 36.010607 0 0 1 0-72.021213h60.0319v-314.111476zM509.013338 711.466974a36.010607 36.010607 0 1 1 36.010607-35.96794 36.010607 36.010607 0 0 1-36.010607 35.96794z"  horiz-adv-x="1024" />

    
    <glyph glyph-name="home" unicode="&#59341;" d="M512.054063 896a82.270451 82.270451 0 0 1-55.217362-21.368948L30.782611 464.774624a40.814691 40.814691 0 0 1-13.633389-28.335225 41.156594 41.156594 0 0 1 10.55626-29.916528 41.156594 41.156594 0 0 1 30.557596-13.633389 41.071119 41.071119 0 0 1 27.565944 10.598999l426.096828 409.941903 426.05409-409.941903a41.327546 41.327546 0 0 1 27.651419-10.598999 41.071119 41.071119 0 0 1 30.514858 13.633389 41.156594 41.156594 0 0 1 10.55626 29.916528 40.814691 40.814691 0 0 1-13.590651 28.335225L567.143212 874.67379A82.099499 82.099499 0 0 1 512.054063 896z m367.54591-583.286811a41.24207 41.24207 0 0 1-41.199332-41.199333v-317.115192h-163.686144v274.761937a82.526878 82.526878 0 0 1-82.441402 82.441402H431.706818a82.526878 82.526878 0 0 1-82.270451-82.441402v-274.761937h-163.686143v317.115192a41.24207 41.24207 0 0 1-41.199333 41.199333 41.24207 41.24207 0 0 1-41.199332-41.199333v-317.115192a82.48414 82.48414 0 0 1 82.398665-82.398664h652.522203a82.526878 82.526878 0 0 1 82.441403 82.441402v317.115192a41.24207 41.24207 0 0 1-41.24207 41.156595zM431.706818-45.558598v274.719199h160.267112v-274.761937z"  horiz-adv-x="1024" />

    
    <glyph glyph-name="info-cirlce-o" unicode="&#59342;" d="M512-127.998293A511.999147 511.999147 0 0 0 149.973937 746.026917a511.999147 511.999147 0 0 0 724.094793-724.094794A508.671152 508.671152 0 0 0 512-127.998293z m0 951.97708A440.1486 440.1486 0 0 1 340.821619-21.331804a440.063267 440.063267 0 0 1 482.132529 716.798805A438.100603 438.100603 0 0 1 512 823.978787z m118.18647-705.577491H387.79754a36.010607 36.010607 0 1 0 0 71.978547h85.333191V504.491319H413.013498a36.010607 36.010607 0 0 0 0 71.978547h95.99984a36.053273 36.053273 0 0 0 36.010607-36.010607v-350.079416h85.333191a36.010607 36.010607 0 1 0 0-72.021214zM509.013338 639.488428a36.010607 36.010607 0 1 0 36.010607 36.010606 36.053273 36.053273 0 0 0-36.010607-36.010606z"  horiz-adv-x="1024" />

    
    <glyph glyph-name="left-circle" unicode="&#59343;" d="M512.018364-128A512.021354 512.021354 0 0 0 149.986083 746.053635a512.021354 512.021354 0 0 0 724.10727-724.10727 508.690161 508.690161 0 0 0-362.074989-149.946365z m90.753639 769.975226a35.87438 35.87438 0 0 1-24.642282-9.780039l-235.831338-221.011803a36.002502 36.002502 0 0 1 0-52.487634l235.78863-220.969095a36.002502 36.002502 0 1 1 49.284565 52.487634l-207.644326 194.789339 207.729741 194.661217a36.04521 36.04521 0 0 1-24.68499 62.267674z"  horiz-adv-x="1024" />

    
    <glyph glyph-name="left-circle-o" unicode="&#59344;" d="M512.018364-128A512.021354 512.021354 0 0 0 149.986083 746.053635a512.021354 512.021354 0 0 0 724.10727-724.10727 508.690161 508.690161 0 0 0-362.074989-149.946365z m0 951.994995a440.144472 440.144472 0 0 1-171.214747-845.610376A440.229887 440.229887 0 0 1 683.361235 789.487259a437.283063 437.283063 0 0 1-171.342871 34.507736z m90.881762-696.133795a35.917087 35.917087 0 0 0-24.68499 9.78004l-235.788631 221.05451a36.002502 36.002502 0 0 0 0 52.487634l235.831339 221.011803a36.002502 36.002502 0 0 0 49.327272-52.487634l-207.857864-194.703925 207.772449-194.789339a36.087918 36.087918 0 0 0 1.622888-50.907453 35.618134 35.618134 0 0 0-26.222463-11.36022z"  horiz-adv-x="1024" />

    
    <glyph glyph-name="meho" unicode="&#59346;" d="M512-127.998293A511.999147 511.999147 0 0 0 149.973937 746.026917a511.999147 511.999147 0 0 0 724.094793-724.094794A508.671152 508.671152 0 0 0 512-127.998293z m-133.162445 318.207469a36.010607 36.010607 0 1 1 0-72.021213h264.020894a36.010607 36.010607 0 0 1 0 71.978547z m390.698016 383.402028a59.989233 59.989233 0 1 1 60.0319-59.989233 60.0319 60.0319 0 0 1-60.074567 59.989233z m-515.284475 0a59.989233 59.989233 0 1 1 59.946567-59.989233 60.074567 60.074567 0 0 1-59.989233 59.989233z"  horiz-adv-x="1024" />

    
    <glyph glyph-name="minus-circle" unicode="&#59347;" d="M512-127.998293A511.999147 511.999147 0 0 0 149.973937 746.026917a511.999147 511.999147 0 0 0 724.094793-724.094794A508.671152 508.671152 0 0 0 512-127.998293zM227.499141 420.01146a36.010607 36.010607 0 0 1 0-72.021213h569.001718a36.010607 36.010607 0 1 1 0 71.978546z"  horiz-adv-x="1024" />

    
    </font>
</defs>
</svg>
